<mxfile host="app.diagrams.net" modified="2022-12-16T06:29:10.338Z" agent="5.0 (Windows NT 10.0; Win64; x64) AppleWebKit/537.36 (KHTML, like Gecko) Chrome/106.0.0.0 YaBrowser/22.11.3.818 Yowser/2.5 Safari/537.36" etag="FUqTZDTUcwU88zVhAWKK" version="20.7.3" type="github" pages="8">
  <diagram id="C5RBs43oDa-KdzZeNtuy" name="Страница 1">
    <mxGraphModel dx="1434" dy="783" grid="1" gridSize="10" guides="1" tooltips="1" connect="1" arrows="1" fold="1" page="1" pageScale="1" pageWidth="827" pageHeight="1169" math="0" shadow="0">
      <root>
        <mxCell id="WIyWlLk6GJQsqaUBKTNV-0" />
        <mxCell id="WIyWlLk6GJQsqaUBKTNV-1" parent="WIyWlLk6GJQsqaUBKTNV-0" />
        <mxCell id="AFSqOOwGYzq4-t5DbrBi-0" style="edgeStyle=orthogonalEdgeStyle;rounded=0;orthogonalLoop=1;jettySize=auto;html=1;exitX=0.5;exitY=1;exitDx=0;exitDy=0;exitPerimeter=0;entryX=0.5;entryY=0;entryDx=0;entryDy=0;" parent="WIyWlLk6GJQsqaUBKTNV-1" source="AFSqOOwGYzq4-t5DbrBi-1" target="AFSqOOwGYzq4-t5DbrBi-3" edge="1">
          <mxGeometry relative="1" as="geometry">
            <mxPoint x="420" y="185" as="targetPoint" />
          </mxGeometry>
        </mxCell>
        <mxCell id="AFSqOOwGYzq4-t5DbrBi-1" value="&lt;font style=&quot;font-size: 14px;&quot; face=&quot;Times New Roman&quot;&gt;Начало&lt;/font&gt;" style="strokeWidth=2;html=1;shape=mxgraph.flowchart.terminator;whiteSpace=wrap;" parent="WIyWlLk6GJQsqaUBKTNV-1" vertex="1">
          <mxGeometry x="340" y="120" width="160" height="70" as="geometry" />
        </mxCell>
        <mxCell id="pIzIY0ogZdEqg691d0gO-3" style="edgeStyle=orthogonalEdgeStyle;rounded=0;orthogonalLoop=1;jettySize=auto;html=1;entryX=0.5;entryY=0;entryDx=0;entryDy=0;fontFamily=Times New Roman;fontSize=14;" parent="WIyWlLk6GJQsqaUBKTNV-1" source="AFSqOOwGYzq4-t5DbrBi-3" target="AFSqOOwGYzq4-t5DbrBi-7" edge="1">
          <mxGeometry relative="1" as="geometry" />
        </mxCell>
        <mxCell id="AFSqOOwGYzq4-t5DbrBi-3" value="&lt;font style=&quot;font-size: 14px;&quot; face=&quot;Times New Roman&quot;&gt;numbers = [&quot;1&quot;, &quot;2&quot;, &quot;3&quot;, &quot;4&quot;, &quot;5&quot;, &quot;6&quot;, &quot;7&quot;, &quot;8&quot;, &quot;9&quot;]&lt;br&gt;&lt;/font&gt;" style="rounded=0;whiteSpace=wrap;html=1;" parent="WIyWlLk6GJQsqaUBKTNV-1" vertex="1">
          <mxGeometry x="260" y="210" width="320" height="60" as="geometry" />
        </mxCell>
        <mxCell id="AFSqOOwGYzq4-t5DbrBi-6" style="edgeStyle=orthogonalEdgeStyle;rounded=0;orthogonalLoop=1;jettySize=auto;html=1;entryX=0.5;entryY=0;entryDx=0;entryDy=0;fontFamily=Times New Roman;fontSize=14;" parent="WIyWlLk6GJQsqaUBKTNV-1" source="AFSqOOwGYzq4-t5DbrBi-7" target="AFSqOOwGYzq4-t5DbrBi-10" edge="1">
          <mxGeometry relative="1" as="geometry" />
        </mxCell>
        <mxCell id="AFSqOOwGYzq4-t5DbrBi-7" value="Ввод: M &lt;br&gt;# размер матрицы M*M от 2 до 5" style="shape=parallelogram;perimeter=parallelogramPerimeter;whiteSpace=wrap;html=1;fixedSize=1;fontFamily=Times New Roman;fontSize=14;" parent="WIyWlLk6GJQsqaUBKTNV-1" vertex="1">
          <mxGeometry x="280" y="290" width="280" height="60" as="geometry" />
        </mxCell>
        <mxCell id="AFSqOOwGYzq4-t5DbrBi-8" style="edgeStyle=orthogonalEdgeStyle;rounded=0;orthogonalLoop=1;jettySize=auto;html=1;entryX=0.5;entryY=0;entryDx=0;entryDy=0;fontFamily=Times New Roman;fontSize=14;" parent="WIyWlLk6GJQsqaUBKTNV-1" source="AFSqOOwGYzq4-t5DbrBi-10" target="AFSqOOwGYzq4-t5DbrBi-12" edge="1">
          <mxGeometry relative="1" as="geometry" />
        </mxCell>
        <mxCell id="AFSqOOwGYzq4-t5DbrBi-9" style="edgeStyle=orthogonalEdgeStyle;rounded=0;orthogonalLoop=1;jettySize=auto;html=1;fontFamily=Times New Roman;fontSize=14;exitX=1;exitY=0.5;exitDx=0;exitDy=0;entryX=0.5;entryY=0;entryDx=0;entryDy=0;" parent="WIyWlLk6GJQsqaUBKTNV-1" source="AFSqOOwGYzq4-t5DbrBi-10" target="AFSqOOwGYzq4-t5DbrBi-15" edge="1">
          <mxGeometry relative="1" as="geometry">
            <mxPoint x="420" y="940" as="targetPoint" />
            <Array as="points">
              <mxPoint x="580" y="420" />
              <mxPoint x="580" y="700" />
              <mxPoint x="420" y="700" />
            </Array>
          </mxGeometry>
        </mxCell>
        <mxCell id="AFSqOOwGYzq4-t5DbrBi-10" value="Пока (M not in [&quot;2&quot;, &quot;3&quot;, &quot;4&quot;, &quot;5&quot;])" style="shape=hexagon;perimeter=hexagonPerimeter2;whiteSpace=wrap;html=1;fixedSize=1;fontFamily=Times New Roman;fontSize=14;" parent="WIyWlLk6GJQsqaUBKTNV-1" vertex="1">
          <mxGeometry x="310" y="380" width="220" height="80" as="geometry" />
        </mxCell>
        <mxCell id="AFSqOOwGYzq4-t5DbrBi-11" style="edgeStyle=orthogonalEdgeStyle;rounded=0;orthogonalLoop=1;jettySize=auto;html=1;fontFamily=Times New Roman;fontSize=14;" parent="WIyWlLk6GJQsqaUBKTNV-1" source="AFSqOOwGYzq4-t5DbrBi-12" target="AFSqOOwGYzq4-t5DbrBi-14" edge="1">
          <mxGeometry relative="1" as="geometry" />
        </mxCell>
        <mxCell id="AFSqOOwGYzq4-t5DbrBi-12" value="Вывод: &quot;Введите размер матрицы&quot;" style="shape=parallelogram;perimeter=parallelogramPerimeter;whiteSpace=wrap;html=1;fixedSize=1;fontFamily=Times New Roman;fontSize=14;" parent="WIyWlLk6GJQsqaUBKTNV-1" vertex="1">
          <mxGeometry x="302" y="495" width="236" height="60" as="geometry" />
        </mxCell>
        <mxCell id="AFSqOOwGYzq4-t5DbrBi-13" style="edgeStyle=orthogonalEdgeStyle;rounded=0;orthogonalLoop=1;jettySize=auto;html=1;exitX=0.5;exitY=1;exitDx=0;exitDy=0;fontFamily=Times New Roman;fontSize=14;entryX=0;entryY=0.5;entryDx=0;entryDy=0;" parent="WIyWlLk6GJQsqaUBKTNV-1" source="AFSqOOwGYzq4-t5DbrBi-14" target="AFSqOOwGYzq4-t5DbrBi-10" edge="1">
          <mxGeometry relative="1" as="geometry">
            <mxPoint x="250" y="600" as="targetPoint" />
            <Array as="points">
              <mxPoint x="420" y="680" />
              <mxPoint x="260" y="680" />
              <mxPoint x="260" y="420" />
            </Array>
          </mxGeometry>
        </mxCell>
        <mxCell id="AFSqOOwGYzq4-t5DbrBi-14" value="Ввод: M &lt;br&gt;# размер матрицы M*M от 2 до 5" style="shape=parallelogram;perimeter=parallelogramPerimeter;whiteSpace=wrap;html=1;fixedSize=1;fontFamily=Times New Roman;fontSize=14;" parent="WIyWlLk6GJQsqaUBKTNV-1" vertex="1">
          <mxGeometry x="280" y="590" width="280" height="60" as="geometry" />
        </mxCell>
        <mxCell id="AFSqOOwGYzq4-t5DbrBi-15" value="A" style="ellipse;whiteSpace=wrap;html=1;aspect=fixed;fontFamily=Times New Roman;fontSize=14;" parent="WIyWlLk6GJQsqaUBKTNV-1" vertex="1">
          <mxGeometry x="380" y="730" width="80" height="80" as="geometry" />
        </mxCell>
        <mxCell id="pIzIY0ogZdEqg691d0gO-0" value="&lt;font style=&quot;font-size: 14px;&quot; face=&quot;Times New Roman&quot;&gt;Да&lt;br&gt;&lt;/font&gt;" style="text;html=1;strokeColor=none;fillColor=none;align=center;verticalAlign=middle;whiteSpace=wrap;rounded=0;" parent="WIyWlLk6GJQsqaUBKTNV-1" vertex="1">
          <mxGeometry x="410" y="460" width="60" height="30" as="geometry" />
        </mxCell>
        <mxCell id="pIzIY0ogZdEqg691d0gO-1" value="&lt;font style=&quot;font-size: 14px;&quot; face=&quot;Times New Roman&quot;&gt;Нет&lt;br&gt;&lt;/font&gt;" style="text;html=1;strokeColor=none;fillColor=none;align=center;verticalAlign=middle;whiteSpace=wrap;rounded=0;" parent="WIyWlLk6GJQsqaUBKTNV-1" vertex="1">
          <mxGeometry x="530" y="390" width="60" height="30" as="geometry" />
        </mxCell>
      </root>
    </mxGraphModel>
  </diagram>
  <diagram id="qMbITZwg65iAmH-6aeip" name="Страница 2">
    <mxGraphModel dx="1434" dy="783" grid="1" gridSize="10" guides="1" tooltips="1" connect="1" arrows="1" fold="1" page="1" pageScale="1" pageWidth="827" pageHeight="1169" math="0" shadow="0">
      <root>
        <mxCell id="0" />
        <mxCell id="1" parent="0" />
        <mxCell id="wqic0OLUWCszDxYdUwwq-1" style="edgeStyle=orthogonalEdgeStyle;rounded=0;orthogonalLoop=1;jettySize=auto;html=1;fontFamily=Times New Roman;fontSize=14;" parent="1" source="wqic0OLUWCszDxYdUwwq-2" edge="1">
          <mxGeometry relative="1" as="geometry">
            <mxPoint x="400" y="160" as="targetPoint" />
          </mxGeometry>
        </mxCell>
        <mxCell id="wqic0OLUWCszDxYdUwwq-2" value="A" style="ellipse;whiteSpace=wrap;html=1;aspect=fixed;fontFamily=Times New Roman;fontSize=14;" parent="1" vertex="1">
          <mxGeometry x="360" y="60" width="80" height="80" as="geometry" />
        </mxCell>
        <mxCell id="zjIT7lo-a0CSgA1fpned-1" style="edgeStyle=orthogonalEdgeStyle;rounded=0;orthogonalLoop=1;jettySize=auto;html=1;entryX=0.5;entryY=0;entryDx=0;entryDy=0;fontFamily=Times New Roman;fontSize=14;" parent="1" source="wqic0OLUWCszDxYdUwwq-4" target="wqic0OLUWCszDxYdUwwq-8" edge="1">
          <mxGeometry relative="1" as="geometry" />
        </mxCell>
        <mxCell id="wqic0OLUWCszDxYdUwwq-4" value="matrix = [] # объявление матрицы&lt;br&gt;tmp = [] # временный массив" style="rounded=0;whiteSpace=wrap;html=1;fontFamily=Times New Roman;fontSize=14;" parent="1" vertex="1">
          <mxGeometry x="290" y="160" width="220" height="60" as="geometry" />
        </mxCell>
        <mxCell id="J0T7S5z2ptjXI6R4G7zI-1" style="edgeStyle=orthogonalEdgeStyle;rounded=0;orthogonalLoop=1;jettySize=auto;html=1;entryX=0.5;entryY=0;entryDx=0;entryDy=0;fontFamily=Times New Roman;fontSize=14;" parent="1" source="wqic0OLUWCszDxYdUwwq-8" target="wqic0OLUWCszDxYdUwwq-10" edge="1">
          <mxGeometry relative="1" as="geometry" />
        </mxCell>
        <mxCell id="wqic0OLUWCszDxYdUwwq-8" value="Вывод: &quot;Введите способ ввода матрицы (1 - случайные, 2 - пользователь вводит с клавиатуры)&quot;" style="shape=parallelogram;perimeter=parallelogramPerimeter;whiteSpace=wrap;html=1;fixedSize=1;fontFamily=Times New Roman;fontSize=14;" parent="1" vertex="1">
          <mxGeometry x="100" y="240" width="600" height="60" as="geometry" />
        </mxCell>
        <mxCell id="wqic0OLUWCszDxYdUwwq-9" style="edgeStyle=orthogonalEdgeStyle;rounded=0;orthogonalLoop=1;jettySize=auto;html=1;entryX=0.5;entryY=0;entryDx=0;entryDy=0;fontFamily=Times New Roman;fontSize=14;" parent="1" source="wqic0OLUWCszDxYdUwwq-10" target="wqic0OLUWCszDxYdUwwq-13" edge="1">
          <mxGeometry relative="1" as="geometry" />
        </mxCell>
        <mxCell id="wqic0OLUWCszDxYdUwwq-10" value="Ввод: variant&lt;br&gt;# пользователь выбирает вариант создания матрицы" style="shape=parallelogram;perimeter=parallelogramPerimeter;whiteSpace=wrap;html=1;fixedSize=1;fontFamily=Times New Roman;fontSize=14;" parent="1" vertex="1">
          <mxGeometry x="123.38" y="320" width="553.12" height="60" as="geometry" />
        </mxCell>
        <mxCell id="wqic0OLUWCszDxYdUwwq-11" style="edgeStyle=orthogonalEdgeStyle;rounded=0;orthogonalLoop=1;jettySize=auto;html=1;entryX=0.5;entryY=0;entryDx=0;entryDy=0;fontFamily=Times New Roman;fontSize=14;" parent="1" source="wqic0OLUWCszDxYdUwwq-13" target="wqic0OLUWCszDxYdUwwq-15" edge="1">
          <mxGeometry relative="1" as="geometry" />
        </mxCell>
        <mxCell id="wqic0OLUWCszDxYdUwwq-12" style="edgeStyle=orthogonalEdgeStyle;rounded=0;orthogonalLoop=1;jettySize=auto;html=1;fontFamily=Times New Roman;fontSize=14;entryX=0.5;entryY=0;entryDx=0;entryDy=0;" parent="1" source="wqic0OLUWCszDxYdUwwq-13" target="wqic0OLUWCszDxYdUwwq-18" edge="1">
          <mxGeometry relative="1" as="geometry">
            <mxPoint x="399.92" y="780" as="targetPoint" />
            <Array as="points">
              <mxPoint x="559.9200000000001" y="440" />
              <mxPoint x="559.9200000000001" y="735" />
              <mxPoint x="399.92" y="735" />
            </Array>
          </mxGeometry>
        </mxCell>
        <mxCell id="wqic0OLUWCszDxYdUwwq-13" value="Пока (variant not in [&quot;1&quot;, &quot;2&quot;])" style="shape=hexagon;perimeter=hexagonPerimeter2;whiteSpace=wrap;html=1;fixedSize=1;fontFamily=Times New Roman;fontSize=14;" parent="1" vertex="1">
          <mxGeometry x="299.92" y="400" width="200" height="80" as="geometry" />
        </mxCell>
        <mxCell id="wqic0OLUWCszDxYdUwwq-14" style="edgeStyle=orthogonalEdgeStyle;rounded=0;orthogonalLoop=1;jettySize=auto;html=1;fontFamily=Times New Roman;fontSize=14;" parent="1" source="wqic0OLUWCszDxYdUwwq-15" target="wqic0OLUWCszDxYdUwwq-17" edge="1">
          <mxGeometry relative="1" as="geometry" />
        </mxCell>
        <mxCell id="wqic0OLUWCszDxYdUwwq-15" value="Вывод: &quot;1 или 2!&quot;" style="shape=parallelogram;perimeter=parallelogramPerimeter;whiteSpace=wrap;html=1;fixedSize=1;fontFamily=Times New Roman;fontSize=14;" parent="1" vertex="1">
          <mxGeometry x="281.92" y="520" width="236" height="60" as="geometry" />
        </mxCell>
        <mxCell id="wqic0OLUWCszDxYdUwwq-16" style="edgeStyle=orthogonalEdgeStyle;rounded=0;orthogonalLoop=1;jettySize=auto;html=1;exitX=0.5;exitY=1;exitDx=0;exitDy=0;fontFamily=Times New Roman;fontSize=14;entryX=0;entryY=0.5;entryDx=0;entryDy=0;" parent="1" source="wqic0OLUWCszDxYdUwwq-17" target="wqic0OLUWCszDxYdUwwq-13" edge="1">
          <mxGeometry relative="1" as="geometry">
            <mxPoint x="229.92" y="440" as="targetPoint" />
            <Array as="points">
              <mxPoint x="399.98" y="720" />
              <mxPoint x="239.98" y="720" />
              <mxPoint x="239.98" y="440" />
            </Array>
          </mxGeometry>
        </mxCell>
        <mxCell id="wqic0OLUWCszDxYdUwwq-17" value="Ввод: variant" style="shape=parallelogram;perimeter=parallelogramPerimeter;whiteSpace=wrap;html=1;fixedSize=1;fontFamily=Times New Roman;fontSize=14;" parent="1" vertex="1">
          <mxGeometry x="329.92" y="620" width="140" height="60" as="geometry" />
        </mxCell>
        <mxCell id="wqic0OLUWCszDxYdUwwq-18" value="B" style="ellipse;whiteSpace=wrap;html=1;aspect=fixed;fontFamily=Times New Roman;fontSize=14;" parent="1" vertex="1">
          <mxGeometry x="359.92" y="775" width="80" height="80" as="geometry" />
        </mxCell>
      </root>
    </mxGraphModel>
  </diagram>
  <diagram id="svGBdCOZW8eRL4nAfhc7" name="Страница 3">
    <mxGraphModel dx="2049" dy="1119" grid="1" gridSize="10" guides="1" tooltips="1" connect="1" arrows="1" fold="1" page="1" pageScale="1" pageWidth="827" pageHeight="1169" math="0" shadow="0">
      <root>
        <mxCell id="0" />
        <mxCell id="1" parent="0" />
        <mxCell id="JfKkdEd9zAQhm2vbz7kG-1" style="edgeStyle=orthogonalEdgeStyle;rounded=0;orthogonalLoop=1;jettySize=auto;html=1;fontFamily=Times New Roman;fontSize=14;" parent="1" source="JfKkdEd9zAQhm2vbz7kG-2" edge="1">
          <mxGeometry relative="1" as="geometry">
            <mxPoint x="440" y="160" as="targetPoint" />
          </mxGeometry>
        </mxCell>
        <mxCell id="JfKkdEd9zAQhm2vbz7kG-2" value="B" style="ellipse;whiteSpace=wrap;html=1;aspect=fixed;fontFamily=Times New Roman;fontSize=14;" parent="1" vertex="1">
          <mxGeometry x="400" y="40" width="80" height="80" as="geometry" />
        </mxCell>
        <mxCell id="JfKkdEd9zAQhm2vbz7kG-3" style="edgeStyle=orthogonalEdgeStyle;rounded=0;orthogonalLoop=1;jettySize=auto;html=1;fontFamily=Times New Roman;fontSize=14;entryX=0.5;entryY=0;entryDx=0;entryDy=0;" parent="1" source="JfKkdEd9zAQhm2vbz7kG-5" target="JfKkdEd9zAQhm2vbz7kG-10" edge="1">
          <mxGeometry relative="1" as="geometry">
            <mxPoint x="120" y="320" as="targetPoint" />
            <Array as="points">
              <mxPoint x="260" y="220" />
            </Array>
          </mxGeometry>
        </mxCell>
        <mxCell id="JfKkdEd9zAQhm2vbz7kG-4" style="edgeStyle=orthogonalEdgeStyle;rounded=0;orthogonalLoop=1;jettySize=auto;html=1;exitX=1;exitY=0.5;exitDx=0;exitDy=0;exitPerimeter=0;fontFamily=Times New Roman;fontSize=14;" parent="1" source="JfKkdEd9zAQhm2vbz7kG-5" target="JfKkdEd9zAQhm2vbz7kG-29" edge="1">
          <mxGeometry relative="1" as="geometry">
            <mxPoint x="1105" y="310" as="targetPoint" />
            <Array as="points">
              <mxPoint x="1107" y="220" />
            </Array>
          </mxGeometry>
        </mxCell>
        <mxCell id="JfKkdEd9zAQhm2vbz7kG-5" value="Если int(variant) == 1" style="strokeWidth=2;html=1;shape=mxgraph.flowchart.decision;whiteSpace=wrap;fontFamily=Times New Roman;fontSize=14;" parent="1" vertex="1">
          <mxGeometry x="360" y="160" width="160" height="120" as="geometry" />
        </mxCell>
        <mxCell id="JfKkdEd9zAQhm2vbz7kG-6" value="Да" style="text;html=1;align=center;verticalAlign=middle;resizable=0;points=[];autosize=1;strokeColor=none;fillColor=none;fontSize=14;fontFamily=Times New Roman;" parent="1" vertex="1">
          <mxGeometry x="300" y="190" width="40" height="30" as="geometry" />
        </mxCell>
        <mxCell id="JfKkdEd9zAQhm2vbz7kG-7" value="Нет" style="text;html=1;align=center;verticalAlign=middle;resizable=0;points=[];autosize=1;strokeColor=none;fillColor=none;fontSize=14;fontFamily=Times New Roman;" parent="1" vertex="1">
          <mxGeometry x="777" y="190" width="50" height="30" as="geometry" />
        </mxCell>
        <mxCell id="JfKkdEd9zAQhm2vbz7kG-8" style="edgeStyle=orthogonalEdgeStyle;rounded=0;orthogonalLoop=1;jettySize=auto;html=1;fontFamily=Times New Roman;fontSize=14;" parent="1" source="JfKkdEd9zAQhm2vbz7kG-10" edge="1">
          <mxGeometry relative="1" as="geometry">
            <mxPoint x="260" y="440" as="targetPoint" />
          </mxGeometry>
        </mxCell>
        <mxCell id="JfKkdEd9zAQhm2vbz7kG-9" style="edgeStyle=orthogonalEdgeStyle;rounded=0;orthogonalLoop=1;jettySize=auto;html=1;fontFamily=Times New Roman;fontSize=14;" parent="1" source="JfKkdEd9zAQhm2vbz7kG-10" edge="1">
          <mxGeometry relative="1" as="geometry">
            <mxPoint x="260" y="840" as="targetPoint" />
            <Array as="points">
              <mxPoint x="500" y="360" />
              <mxPoint x="500" y="800" />
            </Array>
          </mxGeometry>
        </mxCell>
        <mxCell id="JfKkdEd9zAQhm2vbz7kG-10" value="Заполняем матрицу случайными значениями,&lt;br&gt;Для каждого i из int(M)&amp;nbsp;" style="shape=hexagon;perimeter=hexagonPerimeter2;whiteSpace=wrap;html=1;fixedSize=1;fontFamily=Times New Roman;fontSize=14;" parent="1" vertex="1">
          <mxGeometry x="170" y="320" width="180" height="80" as="geometry" />
        </mxCell>
        <mxCell id="JfKkdEd9zAQhm2vbz7kG-11" style="edgeStyle=orthogonalEdgeStyle;rounded=0;orthogonalLoop=1;jettySize=auto;html=1;entryX=0.5;entryY=0;entryDx=0;entryDy=0;fontFamily=Times New Roman;fontSize=14;" parent="1" source="JfKkdEd9zAQhm2vbz7kG-12" target="JfKkdEd9zAQhm2vbz7kG-15" edge="1">
          <mxGeometry relative="1" as="geometry" />
        </mxCell>
        <mxCell id="JfKkdEd9zAQhm2vbz7kG-12" value="matrix.append([])" style="rounded=0;whiteSpace=wrap;html=1;fontFamily=Times New Roman;fontSize=14;" parent="1" vertex="1">
          <mxGeometry x="200" y="440" width="120" height="60" as="geometry" />
        </mxCell>
        <mxCell id="JfKkdEd9zAQhm2vbz7kG-13" style="edgeStyle=orthogonalEdgeStyle;rounded=0;orthogonalLoop=1;jettySize=auto;html=1;entryX=0.5;entryY=0;entryDx=0;entryDy=0;fontFamily=Times New Roman;fontSize=14;" parent="1" source="JfKkdEd9zAQhm2vbz7kG-15" target="JfKkdEd9zAQhm2vbz7kG-17" edge="1">
          <mxGeometry relative="1" as="geometry" />
        </mxCell>
        <mxCell id="JfKkdEd9zAQhm2vbz7kG-14" style="edgeStyle=orthogonalEdgeStyle;rounded=0;orthogonalLoop=1;jettySize=auto;html=1;fontFamily=Times New Roman;fontSize=14;entryX=0;entryY=0.5;entryDx=0;entryDy=0;" parent="1" source="JfKkdEd9zAQhm2vbz7kG-15" target="JfKkdEd9zAQhm2vbz7kG-10" edge="1">
          <mxGeometry relative="1" as="geometry">
            <mxPoint x="20" y="360" as="targetPoint" />
            <Array as="points">
              <mxPoint x="440" y="580" />
              <mxPoint x="440" y="760" />
              <mxPoint x="20" y="760" />
              <mxPoint x="20" y="360" />
            </Array>
          </mxGeometry>
        </mxCell>
        <mxCell id="JfKkdEd9zAQhm2vbz7kG-15" value="Заполняем матрицу случайными значениями внутренний,&lt;br style=&quot;border-color: var(--border-color);&quot;&gt;Для каждого j из int(M)&amp;nbsp;" style="shape=hexagon;perimeter=hexagonPerimeter2;whiteSpace=wrap;html=1;fixedSize=1;fontFamily=Times New Roman;fontSize=14;" parent="1" vertex="1">
          <mxGeometry x="170" y="540" width="180" height="80" as="geometry" />
        </mxCell>
        <mxCell id="JfKkdEd9zAQhm2vbz7kG-16" style="edgeStyle=orthogonalEdgeStyle;rounded=0;orthogonalLoop=1;jettySize=auto;html=1;fontFamily=Times New Roman;fontSize=14;entryX=0;entryY=0.5;entryDx=0;entryDy=0;" parent="1" source="JfKkdEd9zAQhm2vbz7kG-17" target="JfKkdEd9zAQhm2vbz7kG-15" edge="1">
          <mxGeometry relative="1" as="geometry">
            <mxPoint x="60" y="690" as="targetPoint" />
            <Array as="points">
              <mxPoint x="70" y="690" />
              <mxPoint x="70" y="580" />
            </Array>
          </mxGeometry>
        </mxCell>
        <mxCell id="JfKkdEd9zAQhm2vbz7kG-17" value="matrix.append(random.randint(1, 100))" style="rounded=0;whiteSpace=wrap;html=1;fontFamily=Times New Roman;fontSize=14;" parent="1" vertex="1">
          <mxGeometry x="140" y="660" width="240" height="60" as="geometry" />
        </mxCell>
        <mxCell id="JfKkdEd9zAQhm2vbz7kG-28" style="edgeStyle=orthogonalEdgeStyle;rounded=0;orthogonalLoop=1;jettySize=auto;html=1;fontFamily=Times New Roman;fontSize=14;" parent="1" source="JfKkdEd9zAQhm2vbz7kG-29" edge="1">
          <mxGeometry relative="1" as="geometry">
            <mxPoint x="1080" y="2120" as="targetPoint" />
            <Array as="points">
              <mxPoint x="1880" y="355" />
              <mxPoint x="1880" y="2080" />
              <mxPoint x="1080" y="2080" />
            </Array>
          </mxGeometry>
        </mxCell>
        <mxCell id="XMb9MEyw2C3rr5jSfYCV-7" style="edgeStyle=orthogonalEdgeStyle;rounded=0;orthogonalLoop=1;jettySize=auto;html=1;" edge="1" parent="1" source="JfKkdEd9zAQhm2vbz7kG-29" target="JfKkdEd9zAQhm2vbz7kG-31">
          <mxGeometry relative="1" as="geometry" />
        </mxCell>
        <mxCell id="JfKkdEd9zAQhm2vbz7kG-29" value="Заполняем матрицу значениями,&lt;br style=&quot;border-color: var(--border-color);&quot;&gt;Для каждого i из int(M)&amp;nbsp;" style="shape=hexagon;perimeter=hexagonPerimeter2;whiteSpace=wrap;html=1;fixedSize=1;fontFamily=Times New Roman;fontSize=14;" parent="1" vertex="1">
          <mxGeometry x="1040" y="320" width="120" height="80" as="geometry" />
        </mxCell>
        <mxCell id="XMb9MEyw2C3rr5jSfYCV-6" style="edgeStyle=orthogonalEdgeStyle;rounded=0;orthogonalLoop=1;jettySize=auto;html=1;entryX=0.5;entryY=0;entryDx=0;entryDy=0;" edge="1" parent="1" source="JfKkdEd9zAQhm2vbz7kG-31" target="JfKkdEd9zAQhm2vbz7kG-34">
          <mxGeometry relative="1" as="geometry" />
        </mxCell>
        <mxCell id="JfKkdEd9zAQhm2vbz7kG-31" value="p = []" style="rounded=0;whiteSpace=wrap;html=1;fontFamily=Times New Roman;fontSize=14;" parent="1" vertex="1">
          <mxGeometry x="1060" y="430" width="80" height="40" as="geometry" />
        </mxCell>
        <mxCell id="JfKkdEd9zAQhm2vbz7kG-33" style="edgeStyle=orthogonalEdgeStyle;rounded=0;orthogonalLoop=1;jettySize=auto;html=1;fontFamily=Times New Roman;fontSize=14;" parent="1" source="JfKkdEd9zAQhm2vbz7kG-34" target="JfKkdEd9zAQhm2vbz7kG-29" edge="1">
          <mxGeometry relative="1" as="geometry">
            <mxPoint x="770" y="360" as="targetPoint" />
            <Array as="points">
              <mxPoint x="1840" y="530" />
              <mxPoint x="1840" y="2040" />
              <mxPoint x="600" y="2040" />
              <mxPoint x="600" y="355" />
            </Array>
            <mxPoint x="1190" y="575" as="sourcePoint" />
          </mxGeometry>
        </mxCell>
        <mxCell id="XMb9MEyw2C3rr5jSfYCV-5" style="edgeStyle=orthogonalEdgeStyle;rounded=0;orthogonalLoop=1;jettySize=auto;html=1;entryX=0.5;entryY=0;entryDx=0;entryDy=0;" edge="1" parent="1" source="JfKkdEd9zAQhm2vbz7kG-34" target="JfKkdEd9zAQhm2vbz7kG-36">
          <mxGeometry relative="1" as="geometry" />
        </mxCell>
        <mxCell id="JfKkdEd9zAQhm2vbz7kG-34" value="Заполняем матрицу значениями внутренний,&lt;br style=&quot;border-color: var(--border-color);&quot;&gt;Для каждого j из int(M)&amp;nbsp;" style="shape=hexagon;perimeter=hexagonPerimeter2;whiteSpace=wrap;html=1;fixedSize=1;fontFamily=Times New Roman;fontSize=14;" parent="1" vertex="1">
          <mxGeometry x="1030" y="490" width="140" height="80" as="geometry" />
        </mxCell>
        <mxCell id="JfKkdEd9zAQhm2vbz7kG-35" style="edgeStyle=orthogonalEdgeStyle;rounded=0;orthogonalLoop=1;jettySize=auto;html=1;exitX=0.5;exitY=1;exitDx=0;exitDy=0;fontFamily=Times New Roman;fontSize=14;" parent="1" source="JfKkdEd9zAQhm2vbz7kG-36" target="JfKkdEd9zAQhm2vbz7kG-38" edge="1">
          <mxGeometry relative="1" as="geometry" />
        </mxCell>
        <mxCell id="JfKkdEd9zAQhm2vbz7kG-36" value="Вывод: f&quot;Введите значения [{i};{j}]&quot;" style="shape=parallelogram;perimeter=parallelogramPerimeter;whiteSpace=wrap;html=1;fixedSize=1;fontFamily=Times New Roman;fontSize=14;" parent="1" vertex="1">
          <mxGeometry x="970" y="600" width="260" height="60" as="geometry" />
        </mxCell>
        <mxCell id="JfKkdEd9zAQhm2vbz7kG-37" style="edgeStyle=orthogonalEdgeStyle;rounded=0;orthogonalLoop=1;jettySize=auto;html=1;entryX=0.5;entryY=0;entryDx=0;entryDy=0;fontFamily=Times New Roman;fontSize=14;" parent="1" source="JfKkdEd9zAQhm2vbz7kG-38" target="JfKkdEd9zAQhm2vbz7kG-40" edge="1">
          <mxGeometry relative="1" as="geometry" />
        </mxCell>
        <mxCell id="JfKkdEd9zAQhm2vbz7kG-38" value="Ввод: qtty" style="shape=parallelogram;perimeter=parallelogramPerimeter;whiteSpace=wrap;html=1;fixedSize=1;fontFamily=Times New Roman;fontSize=14;" parent="1" vertex="1">
          <mxGeometry x="1050" y="690" width="100" height="60" as="geometry" />
        </mxCell>
        <mxCell id="JfKkdEd9zAQhm2vbz7kG-39" style="edgeStyle=orthogonalEdgeStyle;rounded=0;orthogonalLoop=1;jettySize=auto;html=1;entryX=0.5;entryY=0;entryDx=0;entryDy=0;fontFamily=Times New Roman;fontSize=14;" parent="1" source="JfKkdEd9zAQhm2vbz7kG-40" target="JfKkdEd9zAQhm2vbz7kG-43" edge="1">
          <mxGeometry relative="1" as="geometry" />
        </mxCell>
        <mxCell id="JfKkdEd9zAQhm2vbz7kG-40" value="c = 0" style="rounded=0;whiteSpace=wrap;html=1;fontFamily=Times New Roman;fontSize=14;" parent="1" vertex="1">
          <mxGeometry x="1060" y="780" width="80" height="60" as="geometry" />
        </mxCell>
        <mxCell id="JfKkdEd9zAQhm2vbz7kG-42" style="edgeStyle=orthogonalEdgeStyle;rounded=0;orthogonalLoop=1;jettySize=auto;html=1;fontFamily=Times New Roman;fontSize=14;" parent="1" source="JfKkdEd9zAQhm2vbz7kG-43" target="JfKkdEd9zAQhm2vbz7kG-84" edge="1">
          <mxGeometry relative="1" as="geometry">
            <mxPoint x="1200" y="1920" as="targetPoint" />
            <Array as="points">
              <mxPoint x="1800" y="910" />
              <mxPoint x="1800" y="1840" />
              <mxPoint x="1080" y="1840" />
            </Array>
          </mxGeometry>
        </mxCell>
        <mxCell id="XMb9MEyw2C3rr5jSfYCV-2" style="edgeStyle=orthogonalEdgeStyle;rounded=0;orthogonalLoop=1;jettySize=auto;html=1;entryX=0.5;entryY=0;entryDx=0;entryDy=0;entryPerimeter=0;" edge="1" parent="1" source="JfKkdEd9zAQhm2vbz7kG-43" target="JfKkdEd9zAQhm2vbz7kG-46">
          <mxGeometry relative="1" as="geometry" />
        </mxCell>
        <mxCell id="JfKkdEd9zAQhm2vbz7kG-43" value="Пока (c == 0)" style="shape=hexagon;perimeter=hexagonPerimeter2;whiteSpace=wrap;html=1;fixedSize=1;fontFamily=Times New Roman;fontSize=14;" parent="1" vertex="1">
          <mxGeometry x="1050" y="870" width="100" height="80" as="geometry" />
        </mxCell>
        <mxCell id="JfKkdEd9zAQhm2vbz7kG-44" style="edgeStyle=orthogonalEdgeStyle;rounded=0;orthogonalLoop=1;jettySize=auto;html=1;fontFamily=Times New Roman;fontSize=14;entryX=0.5;entryY=0;entryDx=0;entryDy=0;entryPerimeter=0;" parent="1" source="JfKkdEd9zAQhm2vbz7kG-46" target="JfKkdEd9zAQhm2vbz7kG-50" edge="1">
          <mxGeometry relative="1" as="geometry">
            <mxPoint x="947" y="1135" as="targetPoint" />
            <Array as="points">
              <mxPoint x="947" y="1040" />
            </Array>
          </mxGeometry>
        </mxCell>
        <mxCell id="JfKkdEd9zAQhm2vbz7kG-45" style="edgeStyle=orthogonalEdgeStyle;rounded=0;orthogonalLoop=1;jettySize=auto;html=1;fontFamily=Times New Roman;fontSize=14;entryX=0.5;entryY=0;entryDx=0;entryDy=0;entryPerimeter=0;" parent="1" source="JfKkdEd9zAQhm2vbz7kG-46" target="JfKkdEd9zAQhm2vbz7kG-54" edge="1">
          <mxGeometry relative="1" as="geometry">
            <mxPoint x="1307" y="1175" as="targetPoint" />
          </mxGeometry>
        </mxCell>
        <mxCell id="JfKkdEd9zAQhm2vbz7kG-46" value="Если значение из 1 символа" style="strokeWidth=2;html=1;shape=mxgraph.flowchart.decision;whiteSpace=wrap;fontFamily=Times New Roman;fontSize=14;" parent="1" vertex="1">
          <mxGeometry x="1030" y="980" width="140" height="120" as="geometry" />
        </mxCell>
        <mxCell id="JfKkdEd9zAQhm2vbz7kG-47" value="Нет" style="text;html=1;align=center;verticalAlign=middle;resizable=0;points=[];autosize=1;strokeColor=none;fillColor=none;fontSize=14;fontFamily=Times New Roman;" parent="1" vertex="1">
          <mxGeometry x="1220" y="1010" width="50" height="30" as="geometry" />
        </mxCell>
        <mxCell id="JfKkdEd9zAQhm2vbz7kG-48" value="Да" style="text;html=1;strokeColor=none;fillColor=none;align=center;verticalAlign=middle;whiteSpace=wrap;rounded=0;fontFamily=Times New Roman;fontSize=14;" parent="1" vertex="1">
          <mxGeometry x="950" y="1010" width="60" height="30" as="geometry" />
        </mxCell>
        <mxCell id="JfKkdEd9zAQhm2vbz7kG-49" style="edgeStyle=orthogonalEdgeStyle;rounded=0;orthogonalLoop=1;jettySize=auto;html=1;fontFamily=Times New Roman;fontSize=14;" parent="1" source="JfKkdEd9zAQhm2vbz7kG-50" target="JfKkdEd9zAQhm2vbz7kG-52" edge="1">
          <mxGeometry relative="1" as="geometry" />
        </mxCell>
        <mxCell id="JfKkdEd9zAQhm2vbz7kG-50" value="&lt;font style=&quot;font-size: 14px;&quot;&gt;Если qtty это цифра от 1 до 9 в списке numbers&lt;/font&gt;" style="strokeWidth=2;html=1;shape=mxgraph.flowchart.decision;whiteSpace=wrap;fontFamily=Times New Roman;fontSize=14;" parent="1" vertex="1">
          <mxGeometry x="867" y="1080" width="160" height="115" as="geometry" />
        </mxCell>
        <mxCell id="JfKkdEd9zAQhm2vbz7kG-51" style="edgeStyle=orthogonalEdgeStyle;rounded=0;orthogonalLoop=1;jettySize=auto;html=1;fontFamily=Times New Roman;fontSize=14;entryX=0;entryY=0.25;entryDx=0;entryDy=0;" parent="1" source="JfKkdEd9zAQhm2vbz7kG-52" target="JfKkdEd9zAQhm2vbz7kG-43" edge="1">
          <mxGeometry relative="1" as="geometry">
            <mxPoint x="760" y="1000" as="targetPoint" />
            <Array as="points">
              <mxPoint x="947" y="1280" />
              <mxPoint x="760" y="1280" />
              <mxPoint x="760" y="893" />
            </Array>
          </mxGeometry>
        </mxCell>
        <mxCell id="JfKkdEd9zAQhm2vbz7kG-52" value="c = 1" style="rounded=0;whiteSpace=wrap;html=1;fontFamily=Times New Roman;fontSize=14;" parent="1" vertex="1">
          <mxGeometry x="907" y="1225" width="80" height="35" as="geometry" />
        </mxCell>
        <mxCell id="JfKkdEd9zAQhm2vbz7kG-53" style="edgeStyle=orthogonalEdgeStyle;rounded=0;orthogonalLoop=1;jettySize=auto;html=1;fontFamily=Times New Roman;fontSize=14;exitX=0;exitY=0.5;exitDx=0;exitDy=0;exitPerimeter=0;" parent="1" source="JfKkdEd9zAQhm2vbz7kG-54" target="JfKkdEd9zAQhm2vbz7kG-55" edge="1">
          <mxGeometry relative="1" as="geometry" />
        </mxCell>
        <mxCell id="JfKkdEd9zAQhm2vbz7kG-54" value="Если значение из 2 символов" style="strokeWidth=2;html=1;shape=mxgraph.flowchart.decision;whiteSpace=wrap;fontFamily=Times New Roman;fontSize=14;" parent="1" vertex="1">
          <mxGeometry x="1202" y="1080" width="148" height="120" as="geometry" />
        </mxCell>
        <mxCell id="JfKkdEd9zAQhm2vbz7kG-55" value="Если qtty это цифра от 1 до 9 в списке numbers" style="strokeWidth=2;html=1;shape=mxgraph.flowchart.decision;whiteSpace=wrap;fontFamily=Times New Roman;fontSize=14;" parent="1" vertex="1">
          <mxGeometry x="1002" y="1210" width="320" height="120" as="geometry" />
        </mxCell>
        <mxCell id="JfKkdEd9zAQhm2vbz7kG-56" value="Да" style="text;html=1;strokeColor=none;fillColor=none;align=center;verticalAlign=middle;whiteSpace=wrap;rounded=0;fontFamily=Times New Roman;fontSize=14;" parent="1" vertex="1">
          <mxGeometry x="1152" y="1110" width="60" height="30" as="geometry" />
        </mxCell>
        <mxCell id="JfKkdEd9zAQhm2vbz7kG-57" style="edgeStyle=orthogonalEdgeStyle;rounded=0;orthogonalLoop=1;jettySize=auto;html=1;fontFamily=Times New Roman;fontSize=14;" parent="1" target="JfKkdEd9zAQhm2vbz7kG-59" edge="1">
          <mxGeometry relative="1" as="geometry">
            <mxPoint x="1162" y="1330" as="sourcePoint" />
          </mxGeometry>
        </mxCell>
        <mxCell id="JfKkdEd9zAQhm2vbz7kG-58" style="edgeStyle=orthogonalEdgeStyle;rounded=0;orthogonalLoop=1;jettySize=auto;html=1;fontFamily=Times New Roman;fontSize=14;entryX=0;entryY=0.75;entryDx=0;entryDy=0;exitX=0.5;exitY=1;exitDx=0;exitDy=0;" parent="1" source="JfKkdEd9zAQhm2vbz7kG-59" target="JfKkdEd9zAQhm2vbz7kG-43" edge="1">
          <mxGeometry relative="1" as="geometry">
            <mxPoint x="730" y="1010" as="targetPoint" />
            <Array as="points">
              <mxPoint x="1162" y="1410" />
              <mxPoint x="730" y="1410" />
              <mxPoint x="730" y="927" />
            </Array>
            <mxPoint x="1162" y="1520" as="sourcePoint" />
          </mxGeometry>
        </mxCell>
        <mxCell id="JfKkdEd9zAQhm2vbz7kG-59" value="c = 1" style="rounded=0;whiteSpace=wrap;html=1;fontFamily=Times New Roman;fontSize=14;" parent="1" vertex="1">
          <mxGeometry x="1122" y="1360" width="80" height="35" as="geometry" />
        </mxCell>
        <mxCell id="JfKkdEd9zAQhm2vbz7kG-60" style="edgeStyle=orthogonalEdgeStyle;rounded=0;orthogonalLoop=1;jettySize=auto;html=1;fontFamily=Times New Roman;fontSize=14;entryX=0.5;entryY=0;entryDx=0;entryDy=0;entryPerimeter=0;exitX=1;exitY=0.5;exitDx=0;exitDy=0;exitPerimeter=0;" parent="1" target="JfKkdEd9zAQhm2vbz7kG-64" edge="1" source="JfKkdEd9zAQhm2vbz7kG-54">
          <mxGeometry relative="1" as="geometry">
            <mxPoint x="1517" y="1255" as="sourcePoint" />
            <mxPoint x="1627" y="1295" as="targetPoint" />
          </mxGeometry>
        </mxCell>
        <mxCell id="JfKkdEd9zAQhm2vbz7kG-61" value="Нет" style="text;html=1;align=center;verticalAlign=middle;resizable=0;points=[];autosize=1;strokeColor=none;fillColor=none;fontSize=14;fontFamily=Times New Roman;" parent="1" vertex="1">
          <mxGeometry x="1370" y="1110" width="50" height="30" as="geometry" />
        </mxCell>
        <mxCell id="JfKkdEd9zAQhm2vbz7kG-62" style="edgeStyle=orthogonalEdgeStyle;rounded=0;orthogonalLoop=1;jettySize=auto;html=1;fontFamily=Times New Roman;fontSize=14;exitX=0;exitY=0.5;exitDx=0;exitDy=0;exitPerimeter=0;entryX=0.5;entryY=0;entryDx=0;entryDy=0;entryPerimeter=0;" parent="1" source="JfKkdEd9zAQhm2vbz7kG-64" edge="1" target="JfKkdEd9zAQhm2vbz7kG-67">
          <mxGeometry relative="1" as="geometry">
            <mxPoint x="1587" y="1435" as="targetPoint" />
            <Array as="points">
              <mxPoint x="1350" y="1270" />
            </Array>
          </mxGeometry>
        </mxCell>
        <mxCell id="UGrTWfRY_ua_jXKqUOhb-3" style="edgeStyle=orthogonalEdgeStyle;rounded=0;orthogonalLoop=1;jettySize=auto;html=1;fontSize=14;entryX=0.529;entryY=0.005;entryDx=0;entryDy=0;entryPerimeter=0;" edge="1" parent="1" source="JfKkdEd9zAQhm2vbz7kG-64" target="JfKkdEd9zAQhm2vbz7kG-75">
          <mxGeometry relative="1" as="geometry">
            <mxPoint x="1710" y="1270" as="targetPoint" />
            <Array as="points">
              <mxPoint x="1709" y="1270" />
            </Array>
          </mxGeometry>
        </mxCell>
        <mxCell id="JfKkdEd9zAQhm2vbz7kG-64" value="Если значение из 3 символов" style="strokeWidth=2;html=1;shape=mxgraph.flowchart.decision;whiteSpace=wrap;fontFamily=Times New Roman;fontSize=14;" parent="1" vertex="1">
          <mxGeometry x="1380" y="1210" width="190" height="120" as="geometry" />
        </mxCell>
        <mxCell id="JfKkdEd9zAQhm2vbz7kG-65" value="Да" style="text;html=1;strokeColor=none;fillColor=none;align=center;verticalAlign=middle;whiteSpace=wrap;rounded=0;fontFamily=Times New Roman;fontSize=14;" parent="1" vertex="1">
          <mxGeometry x="1350" y="1230" width="60" height="30" as="geometry" />
        </mxCell>
        <mxCell id="JfKkdEd9zAQhm2vbz7kG-66" style="edgeStyle=orthogonalEdgeStyle;rounded=0;orthogonalLoop=1;jettySize=auto;html=1;entryX=0.5;entryY=0;entryDx=0;entryDy=0;fontFamily=Times New Roman;fontSize=14;" parent="1" source="JfKkdEd9zAQhm2vbz7kG-67" target="JfKkdEd9zAQhm2vbz7kG-69" edge="1">
          <mxGeometry relative="1" as="geometry" />
        </mxCell>
        <mxCell id="JfKkdEd9zAQhm2vbz7kG-67" value="Если значение равно 100" style="strokeWidth=2;html=1;shape=mxgraph.flowchart.decision;whiteSpace=wrap;fontFamily=Times New Roman;fontSize=14;" parent="1" vertex="1">
          <mxGeometry x="1260" y="1317.5" width="180" height="120" as="geometry" />
        </mxCell>
        <mxCell id="JfKkdEd9zAQhm2vbz7kG-68" style="edgeStyle=orthogonalEdgeStyle;rounded=0;orthogonalLoop=1;jettySize=auto;html=1;entryX=0.1;entryY=0.176;entryDx=0;entryDy=0;entryPerimeter=0;" parent="1" source="JfKkdEd9zAQhm2vbz7kG-69" target="JfKkdEd9zAQhm2vbz7kG-43" edge="1">
          <mxGeometry relative="1" as="geometry">
            <mxPoint x="700" y="940" as="targetPoint" />
            <Array as="points">
              <mxPoint x="1370" y="1520" />
              <mxPoint x="700" y="1520" />
              <mxPoint x="700" y="884" />
            </Array>
          </mxGeometry>
        </mxCell>
        <mxCell id="JfKkdEd9zAQhm2vbz7kG-69" value="c = 1" style="rounded=0;whiteSpace=wrap;html=1;fontFamily=Times New Roman;fontSize=14;" parent="1" vertex="1">
          <mxGeometry x="1330" y="1470" width="80" height="35" as="geometry" />
        </mxCell>
        <mxCell id="JfKkdEd9zAQhm2vbz7kG-70" value="Да" style="text;html=1;strokeColor=none;fillColor=none;align=center;verticalAlign=middle;whiteSpace=wrap;rounded=0;fontFamily=Times New Roman;fontSize=14;" parent="1" vertex="1">
          <mxGeometry x="942" y="1195" width="60" height="30" as="geometry" />
        </mxCell>
        <mxCell id="JfKkdEd9zAQhm2vbz7kG-71" value="Да" style="text;html=1;strokeColor=none;fillColor=none;align=center;verticalAlign=middle;whiteSpace=wrap;rounded=0;fontFamily=Times New Roman;fontSize=14;" parent="1" vertex="1">
          <mxGeometry x="1152" y="1330" width="60" height="30" as="geometry" />
        </mxCell>
        <mxCell id="JfKkdEd9zAQhm2vbz7kG-72" value="Да" style="text;html=1;strokeColor=none;fillColor=none;align=center;verticalAlign=middle;whiteSpace=wrap;rounded=0;fontFamily=Times New Roman;fontSize=14;" parent="1" vertex="1">
          <mxGeometry x="1360" y="1440" width="60" height="30" as="geometry" />
        </mxCell>
        <mxCell id="JfKkdEd9zAQhm2vbz7kG-73" value="Нет" style="text;html=1;align=center;verticalAlign=middle;resizable=0;points=[];autosize=1;strokeColor=none;fillColor=none;fontSize=14;fontFamily=Times New Roman;" parent="1" vertex="1">
          <mxGeometry x="1590" y="1240" width="50" height="30" as="geometry" />
        </mxCell>
        <mxCell id="JfKkdEd9zAQhm2vbz7kG-74" style="edgeStyle=orthogonalEdgeStyle;rounded=0;orthogonalLoop=1;jettySize=auto;html=1;entryX=0.5;entryY=0;entryDx=0;entryDy=0;entryPerimeter=0;fontFamily=Times New Roman;fontSize=14;" parent="1" source="JfKkdEd9zAQhm2vbz7kG-75" target="JfKkdEd9zAQhm2vbz7kG-77" edge="1">
          <mxGeometry relative="1" as="geometry" />
        </mxCell>
        <mxCell id="JfKkdEd9zAQhm2vbz7kG-75" value="c = 0" style="rounded=0;whiteSpace=wrap;html=1;fontFamily=Times New Roman;fontSize=14;" parent="1" vertex="1">
          <mxGeometry x="1667" y="1317.5" width="80" height="35" as="geometry" />
        </mxCell>
        <mxCell id="JfKkdEd9zAQhm2vbz7kG-76" style="edgeStyle=orthogonalEdgeStyle;rounded=0;orthogonalLoop=1;jettySize=auto;html=1;fontFamily=Times New Roman;fontSize=14;entryX=0.487;entryY=-0.017;entryDx=0;entryDy=0;entryPerimeter=0;" parent="1" source="JfKkdEd9zAQhm2vbz7kG-77" target="JfKkdEd9zAQhm2vbz7kG-79" edge="1">
          <mxGeometry relative="1" as="geometry">
            <mxPoint x="1550" y="1572.5" as="targetPoint" />
            <Array as="points">
              <mxPoint x="1547" y="1432.5" />
            </Array>
          </mxGeometry>
        </mxCell>
        <mxCell id="JfKkdEd9zAQhm2vbz7kG-77" value="Если c == 0" style="strokeWidth=2;html=1;shape=mxgraph.flowchart.decision;whiteSpace=wrap;fontFamily=Times New Roman;fontSize=14;" parent="1" vertex="1">
          <mxGeometry x="1617" y="1372.5" width="180" height="120" as="geometry" />
        </mxCell>
        <mxCell id="XMb9MEyw2C3rr5jSfYCV-10" style="edgeStyle=orthogonalEdgeStyle;rounded=0;orthogonalLoop=1;jettySize=auto;html=1;fontSize=14;" edge="1" parent="1" source="JfKkdEd9zAQhm2vbz7kG-79" target="JfKkdEd9zAQhm2vbz7kG-81">
          <mxGeometry relative="1" as="geometry" />
        </mxCell>
        <mxCell id="JfKkdEd9zAQhm2vbz7kG-79" value="Вывод: &quot;Введите значение от 0 до 100!&quot;" style="shape=parallelogram;perimeter=parallelogramPerimeter;whiteSpace=wrap;html=1;fixedSize=1;fontFamily=Times New Roman;fontSize=14;" parent="1" vertex="1">
          <mxGeometry x="1420" y="1492.5" width="260" height="60" as="geometry" />
        </mxCell>
        <mxCell id="JfKkdEd9zAQhm2vbz7kG-80" style="edgeStyle=orthogonalEdgeStyle;rounded=0;orthogonalLoop=1;jettySize=auto;html=1;fontFamily=Times New Roman;fontSize=14;entryX=0;entryY=0.5;entryDx=0;entryDy=0;" parent="1" source="JfKkdEd9zAQhm2vbz7kG-81" target="JfKkdEd9zAQhm2vbz7kG-43" edge="1">
          <mxGeometry relative="1" as="geometry">
            <mxPoint x="777" y="995" as="targetPoint" />
            <Array as="points">
              <mxPoint x="1550" y="1680" />
              <mxPoint x="800" y="1680" />
              <mxPoint x="800" y="910" />
            </Array>
          </mxGeometry>
        </mxCell>
        <mxCell id="JfKkdEd9zAQhm2vbz7kG-81" value="Ввод: qtty" style="shape=parallelogram;perimeter=parallelogramPerimeter;whiteSpace=wrap;html=1;fixedSize=1;fontFamily=Times New Roman;fontSize=14;" parent="1" vertex="1">
          <mxGeometry x="1500" y="1602.5" width="100" height="60" as="geometry" />
        </mxCell>
        <mxCell id="JfKkdEd9zAQhm2vbz7kG-82" value="Да" style="text;html=1;strokeColor=none;fillColor=none;align=center;verticalAlign=middle;whiteSpace=wrap;rounded=0;fontFamily=Times New Roman;fontSize=14;" parent="1" vertex="1">
          <mxGeometry x="1530" y="1447.5" width="60" height="30" as="geometry" />
        </mxCell>
        <mxCell id="JfKkdEd9zAQhm2vbz7kG-83" style="edgeStyle=orthogonalEdgeStyle;rounded=0;orthogonalLoop=1;jettySize=auto;html=1;fontFamily=Times New Roman;fontSize=14;exitX=0.5;exitY=1;exitDx=0;exitDy=0;" parent="1" source="JfKkdEd9zAQhm2vbz7kG-84" target="JfKkdEd9zAQhm2vbz7kG-34" edge="1">
          <mxGeometry relative="1" as="geometry">
            <mxPoint x="970" y="580" as="targetPoint" />
            <Array as="points">
              <mxPoint x="1080" y="1980" />
              <mxPoint x="1080" y="2000" />
              <mxPoint x="680" y="2000" />
              <mxPoint x="680" y="530" />
            </Array>
            <mxPoint x="940" y="1980" as="sourcePoint" />
          </mxGeometry>
        </mxCell>
        <mxCell id="JfKkdEd9zAQhm2vbz7kG-84" value="tmp.append(matrix[i][j])" style="rounded=0;whiteSpace=wrap;html=1;fontFamily=Times New Roman;fontSize=14;" parent="1" vertex="1">
          <mxGeometry x="1002" y="1920" width="160" height="60" as="geometry" />
        </mxCell>
        <mxCell id="JfKkdEd9zAQhm2vbz7kG-85" style="edgeStyle=orthogonalEdgeStyle;rounded=0;orthogonalLoop=1;jettySize=auto;html=1;entryX=0.5;entryY=0;entryDx=0;entryDy=0;fontFamily=Times New Roman;fontSize=14;" parent="1" source="JfKkdEd9zAQhm2vbz7kG-86" target="JfKkdEd9zAQhm2vbz7kG-87" edge="1">
          <mxGeometry relative="1" as="geometry" />
        </mxCell>
        <mxCell id="JfKkdEd9zAQhm2vbz7kG-86" value="matrix.append(p)" style="rounded=0;whiteSpace=wrap;html=1;fontFamily=Times New Roman;fontSize=14;" parent="1" vertex="1">
          <mxGeometry x="1027" y="2120" width="110" height="60" as="geometry" />
        </mxCell>
        <mxCell id="JfKkdEd9zAQhm2vbz7kG-87" value="C" style="ellipse;whiteSpace=wrap;html=1;aspect=fixed;fontFamily=Times New Roman;fontSize=14;" parent="1" vertex="1">
          <mxGeometry x="1042" y="2210" width="80" height="80" as="geometry" />
        </mxCell>
        <mxCell id="kLlQblTvKxgafrji5mkO-1" value="C" style="ellipse;whiteSpace=wrap;html=1;aspect=fixed;fontFamily=Times New Roman;fontSize=14;" vertex="1" parent="1">
          <mxGeometry x="220" y="840" width="80" height="80" as="geometry" />
        </mxCell>
      </root>
    </mxGraphModel>
  </diagram>
  <diagram id="bzMfhe1HZDDA9QTNhOlo" name="Страница 4">
    <mxGraphModel dx="1434" dy="783" grid="1" gridSize="10" guides="1" tooltips="1" connect="1" arrows="1" fold="1" page="1" pageScale="1" pageWidth="827" pageHeight="1169" math="0" shadow="0">
      <root>
        <mxCell id="0" />
        <mxCell id="1" parent="0" />
        <mxCell id="Up7yxyQXR4OlN78k8rS9-1" style="edgeStyle=orthogonalEdgeStyle;rounded=0;orthogonalLoop=1;jettySize=auto;html=1;fontFamily=Times New Roman;fontSize=14;" edge="1" parent="1" source="Up7yxyQXR4OlN78k8rS9-3">
          <mxGeometry relative="1" as="geometry">
            <mxPoint x="440" y="280" as="targetPoint" />
          </mxGeometry>
        </mxCell>
        <mxCell id="Up7yxyQXR4OlN78k8rS9-2" style="edgeStyle=orthogonalEdgeStyle;rounded=0;orthogonalLoop=1;jettySize=auto;html=1;fontFamily=Times New Roman;fontSize=14;" edge="1" parent="1" source="Up7yxyQXR4OlN78k8rS9-3">
          <mxGeometry relative="1" as="geometry">
            <mxPoint x="440" y="560" as="targetPoint" />
            <Array as="points">
              <mxPoint x="640" y="200" />
              <mxPoint x="640" y="520" />
              <mxPoint x="440" y="520" />
            </Array>
          </mxGeometry>
        </mxCell>
        <mxCell id="Up7yxyQXR4OlN78k8rS9-3" value="Заполняем временный массив значениями, которые выше побочной диагонали&lt;br&gt;Для каждого i из длины матрицы len(matrix)" style="shape=hexagon;perimeter=hexagonPerimeter2;whiteSpace=wrap;html=1;fixedSize=1;fontFamily=Times New Roman;fontSize=14;" vertex="1" parent="1">
          <mxGeometry x="290" y="160" width="300" height="80" as="geometry" />
        </mxCell>
        <mxCell id="Up7yxyQXR4OlN78k8rS9-4" style="edgeStyle=orthogonalEdgeStyle;rounded=0;orthogonalLoop=1;jettySize=auto;html=1;entryX=0.5;entryY=0;entryDx=0;entryDy=0;fontFamily=Times New Roman;fontSize=14;" edge="1" parent="1" source="Up7yxyQXR4OlN78k8rS9-6" target="Up7yxyQXR4OlN78k8rS9-8">
          <mxGeometry relative="1" as="geometry" />
        </mxCell>
        <mxCell id="Up7yxyQXR4OlN78k8rS9-5" style="edgeStyle=orthogonalEdgeStyle;rounded=0;orthogonalLoop=1;jettySize=auto;html=1;fontFamily=Times New Roman;fontSize=14;entryX=0;entryY=0.5;entryDx=0;entryDy=0;" edge="1" parent="1" source="Up7yxyQXR4OlN78k8rS9-6" target="Up7yxyQXR4OlN78k8rS9-3">
          <mxGeometry relative="1" as="geometry">
            <mxPoint x="200" y="200" as="targetPoint" />
            <Array as="points">
              <mxPoint x="620" y="320" />
              <mxPoint x="620" y="500" />
              <mxPoint x="220" y="500" />
              <mxPoint x="220" y="200" />
            </Array>
          </mxGeometry>
        </mxCell>
        <mxCell id="Up7yxyQXR4OlN78k8rS9-6" value="Заполняем временный массив значениями, которые выше побочной диагонали&lt;br style=&quot;border-color: var(--border-color);&quot;&gt;Для каждого j из длины матрицы len(matrix) - i" style="shape=hexagon;perimeter=hexagonPerimeter2;whiteSpace=wrap;html=1;fixedSize=1;fontFamily=Times New Roman;fontSize=14;" vertex="1" parent="1">
          <mxGeometry x="280" y="280" width="320" height="80" as="geometry" />
        </mxCell>
        <mxCell id="Up7yxyQXR4OlN78k8rS9-7" style="edgeStyle=orthogonalEdgeStyle;rounded=0;orthogonalLoop=1;jettySize=auto;html=1;fontFamily=Times New Roman;fontSize=14;entryX=0;entryY=0.5;entryDx=0;entryDy=0;" edge="1" parent="1" source="Up7yxyQXR4OlN78k8rS9-8" target="Up7yxyQXR4OlN78k8rS9-6">
          <mxGeometry relative="1" as="geometry">
            <mxPoint x="280" y="320" as="targetPoint" />
            <Array as="points">
              <mxPoint x="440" y="480" />
              <mxPoint x="260" y="480" />
              <mxPoint x="260" y="320" />
            </Array>
          </mxGeometry>
        </mxCell>
        <mxCell id="Up7yxyQXR4OlN78k8rS9-8" value="tmp.append(matrix[i][j])" style="rounded=0;whiteSpace=wrap;html=1;fontFamily=Times New Roman;fontSize=14;" vertex="1" parent="1">
          <mxGeometry x="360" y="400" width="160" height="60" as="geometry" />
        </mxCell>
        <mxCell id="Up7yxyQXR4OlN78k8rS9-9" value="D" style="ellipse;whiteSpace=wrap;html=1;aspect=fixed;fontFamily=Times New Roman;fontSize=14;" vertex="1" parent="1">
          <mxGeometry x="400" y="560" width="80" height="80" as="geometry" />
        </mxCell>
        <mxCell id="Up7yxyQXR4OlN78k8rS9-10" value="E" style="ellipse;whiteSpace=wrap;html=1;aspect=fixed;fontFamily=Times New Roman;fontSize=14;" vertex="1" parent="1">
          <mxGeometry x="400" y="680" width="80" height="80" as="geometry" />
        </mxCell>
        <mxCell id="Up7yxyQXR4OlN78k8rS9-11" style="edgeStyle=orthogonalEdgeStyle;rounded=0;orthogonalLoop=1;jettySize=auto;html=1;entryX=0.5;entryY=0;entryDx=0;entryDy=0;fontFamily=Times New Roman;fontSize=14;" edge="1" parent="1" target="Up7yxyQXR4OlN78k8rS9-10">
          <mxGeometry relative="1" as="geometry">
            <mxPoint x="440" y="640" as="sourcePoint" />
          </mxGeometry>
        </mxCell>
        <mxCell id="3BdhjvKVDsYDRVZJwsK9-2" style="edgeStyle=orthogonalEdgeStyle;rounded=0;orthogonalLoop=1;jettySize=auto;html=1;entryX=0.5;entryY=0;entryDx=0;entryDy=0;fontSize=14;" edge="1" parent="1" source="3BdhjvKVDsYDRVZJwsK9-1" target="Up7yxyQXR4OlN78k8rS9-3">
          <mxGeometry relative="1" as="geometry" />
        </mxCell>
        <mxCell id="3BdhjvKVDsYDRVZJwsK9-1" value="C" style="ellipse;whiteSpace=wrap;html=1;aspect=fixed;fontFamily=Times New Roman;fontSize=14;" vertex="1" parent="1">
          <mxGeometry x="400" y="60" width="80" height="80" as="geometry" />
        </mxCell>
      </root>
    </mxGraphModel>
  </diagram>
  <diagram id="_SFb9gX3xxjNIKzYCLLD" name="Страница 5">
    <mxGraphModel dx="1687" dy="921" grid="1" gridSize="10" guides="1" tooltips="1" connect="1" arrows="1" fold="1" page="1" pageScale="1" pageWidth="827" pageHeight="1169" math="0" shadow="0">
      <root>
        <mxCell id="0" />
        <mxCell id="1" parent="0" />
        <mxCell id="GO6V5forcWmu6MmKfYv9-1" style="edgeStyle=orthogonalEdgeStyle;rounded=0;orthogonalLoop=1;jettySize=auto;html=1;fontFamily=Times New Roman;fontSize=14;" parent="1" source="GO6V5forcWmu6MmKfYv9-2" edge="1">
          <mxGeometry relative="1" as="geometry">
            <mxPoint x="440" y="140" as="targetPoint" />
          </mxGeometry>
        </mxCell>
        <mxCell id="GO6V5forcWmu6MmKfYv9-2" value="D" style="ellipse;whiteSpace=wrap;html=1;aspect=fixed;fontFamily=Times New Roman;fontSize=14;" parent="1" vertex="1">
          <mxGeometry x="400" y="40" width="80" height="80" as="geometry" />
        </mxCell>
        <mxCell id="GO6V5forcWmu6MmKfYv9-3" value="" style="endArrow=none;dashed=1;html=1;rounded=0;" parent="1" edge="1">
          <mxGeometry width="50" height="50" relative="1" as="geometry">
            <mxPoint x="470" y="80" as="sourcePoint" />
            <mxPoint x="510" y="80" as="targetPoint" />
          </mxGeometry>
        </mxCell>
        <mxCell id="GO6V5forcWmu6MmKfYv9-4" value="" style="strokeWidth=2;html=1;shape=mxgraph.flowchart.annotation_1;align=left;pointerEvents=1;" parent="1" vertex="1">
          <mxGeometry x="510" y="55" width="50" height="50" as="geometry" />
        </mxCell>
        <mxCell id="GO6V5forcWmu6MmKfYv9-5" value="&lt;font style=&quot;font-size: 14px;&quot; face=&quot;Times New Roman&quot;&gt;bubble_sort(tmp)&lt;br&gt;# сортировка массива tmp&lt;br&gt;# tmp - сортируемый массив&amp;nbsp;&lt;/font&gt;" style="text;html=1;strokeColor=none;fillColor=none;align=center;verticalAlign=middle;whiteSpace=wrap;rounded=0;" parent="1" vertex="1">
          <mxGeometry x="520" y="55" width="180" height="50" as="geometry" />
        </mxCell>
        <mxCell id="GO6V5forcWmu6MmKfYv9-6" style="edgeStyle=orthogonalEdgeStyle;rounded=0;orthogonalLoop=1;jettySize=auto;html=1;fontFamily=Times New Roman;fontSize=14;" parent="1" source="GO6V5forcWmu6MmKfYv9-7" edge="1">
          <mxGeometry relative="1" as="geometry">
            <mxPoint x="440" y="240" as="targetPoint" />
          </mxGeometry>
        </mxCell>
        <mxCell id="GO6V5forcWmu6MmKfYv9-7" value="&lt;font style=&quot;font-size: 14px;&quot; face=&quot;Times New Roman&quot;&gt;Начало&lt;/font&gt;" style="strokeWidth=2;html=1;shape=mxgraph.flowchart.terminator;whiteSpace=wrap;" parent="1" vertex="1">
          <mxGeometry x="360" y="140" width="160" height="70" as="geometry" />
        </mxCell>
        <mxCell id="GO6V5forcWmu6MmKfYv9-8" style="edgeStyle=orthogonalEdgeStyle;rounded=0;orthogonalLoop=1;jettySize=auto;html=1;fontFamily=Times New Roman;fontSize=14;" parent="1" source="GO6V5forcWmu6MmKfYv9-10" edge="1">
          <mxGeometry relative="1" as="geometry">
            <mxPoint x="440" y="360" as="targetPoint" />
          </mxGeometry>
        </mxCell>
        <mxCell id="GO6V5forcWmu6MmKfYv9-9" style="edgeStyle=orthogonalEdgeStyle;rounded=0;orthogonalLoop=1;jettySize=auto;html=1;fontFamily=Times New Roman;fontSize=14;exitX=1;exitY=0.5;exitDx=0;exitDy=0;entryX=0.5;entryY=0;entryDx=0;entryDy=0;" parent="1" source="GO6V5forcWmu6MmKfYv9-10" edge="1" target="GO6V5forcWmu6MmKfYv9-21">
          <mxGeometry relative="1" as="geometry">
            <mxPoint x="440" y="960" as="targetPoint" />
            <Array as="points">
              <mxPoint x="680" y="280" />
              <mxPoint x="680" y="780" />
              <mxPoint x="440" y="780" />
            </Array>
            <mxPoint x="560" y="320" as="sourcePoint" />
          </mxGeometry>
        </mxCell>
        <mxCell id="GO6V5forcWmu6MmKfYv9-10" value="Проходимся i по списку tmp от 0 до длины списка tmp - 1" style="shape=hexagon;perimeter=hexagonPerimeter2;whiteSpace=wrap;html=1;fixedSize=1;fontFamily=Times New Roman;fontSize=14;" parent="1" vertex="1">
          <mxGeometry x="360" y="240" width="160" height="80" as="geometry" />
        </mxCell>
        <mxCell id="GO6V5forcWmu6MmKfYv9-11" style="edgeStyle=orthogonalEdgeStyle;rounded=0;orthogonalLoop=1;jettySize=auto;html=1;entryX=0.5;entryY=0;entryDx=0;entryDy=0;fontFamily=Times New Roman;fontSize=14;entryPerimeter=0;" parent="1" source="GO6V5forcWmu6MmKfYv9-13" edge="1" target="GO6V5forcWmu6MmKfYv9-16">
          <mxGeometry relative="1" as="geometry">
            <mxPoint x="440" y="520" as="targetPoint" />
          </mxGeometry>
        </mxCell>
        <mxCell id="GO6V5forcWmu6MmKfYv9-12" style="edgeStyle=orthogonalEdgeStyle;rounded=0;orthogonalLoop=1;jettySize=auto;html=1;fontFamily=Times New Roman;fontSize=14;entryX=0;entryY=0.5;entryDx=0;entryDy=0;" parent="1" target="GO6V5forcWmu6MmKfYv9-10" edge="1">
          <mxGeometry relative="1" as="geometry">
            <mxPoint x="240" y="320" as="targetPoint" />
            <Array as="points">
              <mxPoint x="640" y="400" />
              <mxPoint x="640" y="760" />
              <mxPoint x="240" y="760" />
              <mxPoint x="240" y="280" />
            </Array>
            <mxPoint x="540" y="400" as="sourcePoint" />
          </mxGeometry>
        </mxCell>
        <mxCell id="GO6V5forcWmu6MmKfYv9-13" value="Проходимся j по списку tmp от 0 до длины списка tmp - i - 1" style="shape=hexagon;perimeter=hexagonPerimeter2;whiteSpace=wrap;html=1;fixedSize=1;fontFamily=Times New Roman;fontSize=14;" parent="1" vertex="1">
          <mxGeometry x="340" y="360" width="200" height="80" as="geometry" />
        </mxCell>
        <mxCell id="GO6V5forcWmu6MmKfYv9-14" style="edgeStyle=orthogonalEdgeStyle;rounded=0;orthogonalLoop=1;jettySize=auto;html=1;fontFamily=Times New Roman;fontSize=14;entryX=0.5;entryY=0;entryDx=0;entryDy=0;" parent="1" source="GO6V5forcWmu6MmKfYv9-16" target="GO6V5forcWmu6MmKfYv9-18" edge="1">
          <mxGeometry relative="1" as="geometry">
            <mxPoint x="440" y="630" as="targetPoint" />
          </mxGeometry>
        </mxCell>
        <mxCell id="GO6V5forcWmu6MmKfYv9-15" style="edgeStyle=orthogonalEdgeStyle;rounded=0;orthogonalLoop=1;jettySize=auto;html=1;fontFamily=Times New Roman;fontSize=14;entryX=1;entryY=0.5;entryDx=0;entryDy=0;" parent="1" source="GO6V5forcWmu6MmKfYv9-16" target="GO6V5forcWmu6MmKfYv9-13" edge="1">
          <mxGeometry relative="1" as="geometry">
            <mxPoint x="600.0344827586207" y="640" as="targetPoint" />
            <Array as="points">
              <mxPoint x="600" y="530" />
              <mxPoint x="600" y="400" />
            </Array>
          </mxGeometry>
        </mxCell>
        <mxCell id="GO6V5forcWmu6MmKfYv9-16" value="Если tmp[j] &amp;gt; tmp[j + 1]" style="strokeWidth=2;html=1;shape=mxgraph.flowchart.decision;whiteSpace=wrap;fontFamily=Times New Roman;fontSize=14;" parent="1" vertex="1">
          <mxGeometry x="350" y="470" width="180" height="120" as="geometry" />
        </mxCell>
        <mxCell id="GO6V5forcWmu6MmKfYv9-17" style="edgeStyle=orthogonalEdgeStyle;rounded=0;orthogonalLoop=1;jettySize=auto;html=1;fontFamily=Times New Roman;fontSize=14;entryX=0;entryY=0.5;entryDx=0;entryDy=0;" parent="1" source="GO6V5forcWmu6MmKfYv9-18" target="GO6V5forcWmu6MmKfYv9-13" edge="1">
          <mxGeometry relative="1" as="geometry">
            <mxPoint x="280" y="440" as="targetPoint" />
            <Array as="points">
              <mxPoint x="440" y="720" />
              <mxPoint x="280" y="720" />
              <mxPoint x="280" y="400" />
            </Array>
          </mxGeometry>
        </mxCell>
        <mxCell id="GO6V5forcWmu6MmKfYv9-18" value="&lt;font style=&quot;font-size: 14px;&quot; face=&quot;Times New Roman&quot;&gt;tmp[j], tmp[j + 1] = tmp[j + 1], tmp[j]&lt;br&gt;&lt;/font&gt;" style="rounded=0;whiteSpace=wrap;html=1;" parent="1" vertex="1">
          <mxGeometry x="320" y="620" width="240" height="60" as="geometry" />
        </mxCell>
        <mxCell id="GO6V5forcWmu6MmKfYv9-19" value="Да" style="text;html=1;strokeColor=none;fillColor=none;align=center;verticalAlign=middle;whiteSpace=wrap;rounded=0;fontFamily=Times New Roman;fontSize=14;" parent="1" vertex="1">
          <mxGeometry x="430" y="590" width="60" height="30" as="geometry" />
        </mxCell>
        <mxCell id="GO6V5forcWmu6MmKfYv9-20" value="Нет" style="text;html=1;align=center;verticalAlign=middle;resizable=0;points=[];autosize=1;strokeColor=none;fillColor=none;fontSize=14;fontFamily=Times New Roman;" parent="1" vertex="1">
          <mxGeometry x="520" y="490" width="50" height="30" as="geometry" />
        </mxCell>
        <mxCell id="GO6V5forcWmu6MmKfYv9-21" value="Возвращает: tmp" style="shape=parallelogram;perimeter=parallelogramPerimeter;whiteSpace=wrap;html=1;fixedSize=1;fontFamily=Times New Roman;fontSize=14;" parent="1" vertex="1">
          <mxGeometry x="322" y="820" width="236" height="60" as="geometry" />
        </mxCell>
      </root>
    </mxGraphModel>
  </diagram>
  <diagram id="hoa6O5jEQ1zRNqjXqkMP" name="Страница 6">
    <mxGraphModel dx="1793" dy="979" grid="1" gridSize="10" guides="1" tooltips="1" connect="1" arrows="1" fold="1" page="1" pageScale="1" pageWidth="827" pageHeight="1169" math="0" shadow="0">
      <root>
        <mxCell id="0" />
        <mxCell id="1" parent="0" />
        <mxCell id="-zhAalioFuHm1pTBJYaR-1" style="edgeStyle=orthogonalEdgeStyle;rounded=0;orthogonalLoop=1;jettySize=auto;html=1;fontFamily=Times New Roman;fontSize=14;" parent="1" source="-zhAalioFuHm1pTBJYaR-2" edge="1">
          <mxGeometry relative="1" as="geometry">
            <mxPoint x="440" y="140" as="targetPoint" />
          </mxGeometry>
        </mxCell>
        <mxCell id="-zhAalioFuHm1pTBJYaR-2" value="E" style="ellipse;whiteSpace=wrap;html=1;aspect=fixed;fontFamily=Times New Roman;fontSize=14;" parent="1" vertex="1">
          <mxGeometry x="400" y="40" width="80" height="80" as="geometry" />
        </mxCell>
        <mxCell id="OWrKKXNQvWd1GBtpum43-2" style="edgeStyle=orthogonalEdgeStyle;rounded=0;orthogonalLoop=1;jettySize=auto;html=1;entryX=0.5;entryY=0;entryDx=0;entryDy=0;fontSize=14;" edge="1" parent="1" source="-zhAalioFuHm1pTBJYaR-4" target="-zhAalioFuHm1pTBJYaR-20">
          <mxGeometry relative="1" as="geometry" />
        </mxCell>
        <mxCell id="-zhAalioFuHm1pTBJYaR-4" value="&lt;font style=&quot;font-size: 14px;&quot; face=&quot;Times New Roman&quot;&gt;Начало&lt;/font&gt;" style="strokeWidth=2;html=1;shape=mxgraph.flowchart.terminator;whiteSpace=wrap;" parent="1" vertex="1">
          <mxGeometry x="360" y="140" width="160" height="70" as="geometry" />
        </mxCell>
        <mxCell id="-zhAalioFuHm1pTBJYaR-5" style="edgeStyle=orthogonalEdgeStyle;rounded=0;orthogonalLoop=1;jettySize=auto;html=1;fontFamily=Times New Roman;fontSize=14;entryX=0.5;entryY=0;entryDx=0;entryDy=0;" parent="1" source="-zhAalioFuHm1pTBJYaR-7" edge="1" target="-zhAalioFuHm1pTBJYaR-10">
          <mxGeometry relative="1" as="geometry">
            <mxPoint x="440" y="520.0000000000002" as="targetPoint" />
          </mxGeometry>
        </mxCell>
        <mxCell id="-zhAalioFuHm1pTBJYaR-6" style="edgeStyle=orthogonalEdgeStyle;rounded=0;orthogonalLoop=1;jettySize=auto;html=1;fontFamily=Times New Roman;fontSize=14;entryX=0.5;entryY=0;entryDx=0;entryDy=0;" parent="1" source="-zhAalioFuHm1pTBJYaR-7" edge="1" target="-zhAalioFuHm1pTBJYaR-11">
          <mxGeometry relative="1" as="geometry">
            <mxPoint x="440" y="1160" as="targetPoint" />
            <Array as="points">
              <mxPoint x="600" y="360" />
              <mxPoint x="600" y="940" />
              <mxPoint x="440" y="940" />
            </Array>
          </mxGeometry>
        </mxCell>
        <mxCell id="-zhAalioFuHm1pTBJYaR-7" value="Проходимся i по матрице matrix от 0 до длины матрицы matrix" style="shape=hexagon;perimeter=hexagonPerimeter2;whiteSpace=wrap;html=1;fixedSize=1;fontFamily=Times New Roman;fontSize=14;" parent="1" vertex="1">
          <mxGeometry x="360" y="320" width="160" height="80" as="geometry" />
        </mxCell>
        <mxCell id="-zhAalioFuHm1pTBJYaR-8" style="edgeStyle=orthogonalEdgeStyle;rounded=0;orthogonalLoop=1;jettySize=auto;html=1;entryX=0.5;entryY=0;entryDx=0;entryDy=0;fontFamily=Times New Roman;fontSize=14;" parent="1" source="-zhAalioFuHm1pTBJYaR-10" edge="1" target="-zhAalioFuHm1pTBJYaR-16">
          <mxGeometry relative="1" as="geometry">
            <mxPoint x="440" y="640" as="targetPoint" />
          </mxGeometry>
        </mxCell>
        <mxCell id="-zhAalioFuHm1pTBJYaR-9" style="edgeStyle=orthogonalEdgeStyle;rounded=0;orthogonalLoop=1;jettySize=auto;html=1;fontFamily=Times New Roman;fontSize=14;entryX=0;entryY=0.5;entryDx=0;entryDy=0;" parent="1" source="-zhAalioFuHm1pTBJYaR-10" target="-zhAalioFuHm1pTBJYaR-7" edge="1">
          <mxGeometry relative="1" as="geometry">
            <mxPoint x="240" y="440" as="targetPoint" />
            <Array as="points">
              <mxPoint x="560" y="460" />
              <mxPoint x="560" y="920" />
              <mxPoint x="280" y="920" />
              <mxPoint x="280" y="360" />
            </Array>
          </mxGeometry>
        </mxCell>
        <mxCell id="-zhAalioFuHm1pTBJYaR-10" value="Проходимся j по матрице внутренний matrix от 0 до длины матрицы matrix - i" style="shape=hexagon;perimeter=hexagonPerimeter2;whiteSpace=wrap;html=1;fixedSize=1;fontFamily=Times New Roman;fontSize=14;" parent="1" vertex="1">
          <mxGeometry x="350" y="420" width="180" height="80" as="geometry" />
        </mxCell>
        <mxCell id="-zhAalioFuHm1pTBJYaR-11" value="F" style="ellipse;whiteSpace=wrap;html=1;aspect=fixed;fontFamily=Times New Roman;fontSize=14;" parent="1" vertex="1">
          <mxGeometry x="400" y="960" width="80" height="80" as="geometry" />
        </mxCell>
        <mxCell id="-zhAalioFuHm1pTBJYaR-12" style="edgeStyle=orthogonalEdgeStyle;rounded=0;orthogonalLoop=1;jettySize=auto;html=1;fontFamily=Times New Roman;fontSize=14;" parent="1" source="-zhAalioFuHm1pTBJYaR-14" edge="1">
          <mxGeometry relative="1" as="geometry">
            <mxPoint x="440" y="820" as="targetPoint" />
          </mxGeometry>
        </mxCell>
        <mxCell id="-zhAalioFuHm1pTBJYaR-13" style="edgeStyle=orthogonalEdgeStyle;rounded=0;orthogonalLoop=1;jettySize=auto;html=1;fontFamily=Times New Roman;fontSize=14;" parent="1" source="-zhAalioFuHm1pTBJYaR-14" target="-zhAalioFuHm1pTBJYaR-10" edge="1">
          <mxGeometry relative="1" as="geometry">
            <mxPoint x="279.9999999999998" y="960" as="targetPoint" />
            <Array as="points">
              <mxPoint x="300" y="740" />
              <mxPoint x="300" y="460" />
            </Array>
          </mxGeometry>
        </mxCell>
        <mxCell id="-zhAalioFuHm1pTBJYaR-14" value="Если k == len(tmp)" style="strokeWidth=2;html=1;shape=mxgraph.flowchart.decision;whiteSpace=wrap;fontFamily=Times New Roman;fontSize=14;" parent="1" vertex="1">
          <mxGeometry x="350" y="680" width="180" height="120" as="geometry" />
        </mxCell>
        <mxCell id="-zhAalioFuHm1pTBJYaR-15" style="edgeStyle=orthogonalEdgeStyle;rounded=0;orthogonalLoop=1;jettySize=auto;html=1;fontFamily=Times New Roman;fontSize=14;" parent="1" source="-zhAalioFuHm1pTBJYaR-16" target="-zhAalioFuHm1pTBJYaR-22" edge="1">
          <mxGeometry relative="1" as="geometry" />
        </mxCell>
        <mxCell id="-zhAalioFuHm1pTBJYaR-16" value="&lt;font style=&quot;font-size: 14px;&quot; face=&quot;Times New Roman&quot;&gt;# сортированные элементы в списке tmp закинуть в матрицу&lt;br&gt;matrix[i][j] = tmp[k]&lt;br&gt;&lt;/font&gt;" style="rounded=0;whiteSpace=wrap;html=1;" parent="1" vertex="1">
          <mxGeometry x="350" y="520" width="180" height="75" as="geometry" />
        </mxCell>
        <mxCell id="-zhAalioFuHm1pTBJYaR-17" value="Да" style="text;html=1;strokeColor=none;fillColor=none;align=center;verticalAlign=middle;whiteSpace=wrap;rounded=0;fontFamily=Times New Roman;fontSize=14;" parent="1" vertex="1">
          <mxGeometry x="390" y="790" width="60" height="30" as="geometry" />
        </mxCell>
        <mxCell id="-zhAalioFuHm1pTBJYaR-18" value="Нет" style="text;html=1;align=center;verticalAlign=middle;resizable=0;points=[];autosize=1;strokeColor=none;fillColor=none;fontSize=14;fontFamily=Times New Roman;" parent="1" vertex="1">
          <mxGeometry x="300" y="710" width="50" height="30" as="geometry" />
        </mxCell>
        <mxCell id="-zhAalioFuHm1pTBJYaR-19" style="edgeStyle=orthogonalEdgeStyle;rounded=0;orthogonalLoop=1;jettySize=auto;html=1;fontFamily=Times New Roman;fontSize=14;" parent="1" source="-zhAalioFuHm1pTBJYaR-20" edge="1">
          <mxGeometry relative="1" as="geometry">
            <mxPoint x="440" y="320" as="targetPoint" />
          </mxGeometry>
        </mxCell>
        <mxCell id="-zhAalioFuHm1pTBJYaR-20" value="&lt;font style=&quot;font-size: 14px;&quot; face=&quot;Times New Roman&quot;&gt;k = 0&lt;br&gt;&lt;/font&gt;" style="rounded=0;whiteSpace=wrap;html=1;" parent="1" vertex="1">
          <mxGeometry x="400" y="230" width="80" height="60" as="geometry" />
        </mxCell>
        <mxCell id="-zhAalioFuHm1pTBJYaR-21" style="edgeStyle=orthogonalEdgeStyle;rounded=0;orthogonalLoop=1;jettySize=auto;html=1;fontFamily=Times New Roman;fontSize=14;" parent="1" source="-zhAalioFuHm1pTBJYaR-22" edge="1">
          <mxGeometry relative="1" as="geometry">
            <mxPoint x="440" y="680" as="targetPoint" />
          </mxGeometry>
        </mxCell>
        <mxCell id="-zhAalioFuHm1pTBJYaR-22" value="&lt;font style=&quot;font-size: 14px;&quot; face=&quot;Times New Roman&quot;&gt;k += 1&lt;br&gt;&lt;/font&gt;" style="rounded=0;whiteSpace=wrap;html=1;fontFamily=Times New Roman;fontSize=14;" parent="1" vertex="1">
          <mxGeometry x="400" y="620" width="80" height="40" as="geometry" />
        </mxCell>
        <mxCell id="vkmKMMfiqJhJ-tcF92k6-2" style="edgeStyle=orthogonalEdgeStyle;rounded=0;orthogonalLoop=1;jettySize=auto;html=1;fontSize=14;entryX=0;entryY=0.5;entryDx=0;entryDy=0;" edge="1" parent="1" source="-zhAalioFuHm1pTBJYaR-23" target="-zhAalioFuHm1pTBJYaR-11">
          <mxGeometry relative="1" as="geometry">
            <mxPoint x="360" y="1190" as="targetPoint" />
            <Array as="points">
              <mxPoint x="440" y="900" />
              <mxPoint x="380" y="900" />
              <mxPoint x="380" y="1000" />
            </Array>
          </mxGeometry>
        </mxCell>
        <mxCell id="-zhAalioFuHm1pTBJYaR-23" value="&lt;font style=&quot;font-size: 14px;&quot; face=&quot;Times New Roman&quot;&gt;break&lt;br&gt;&lt;/font&gt;" style="rounded=0;whiteSpace=wrap;html=1;fontFamily=Times New Roman;fontSize=14;" parent="1" vertex="1">
          <mxGeometry x="400" y="820" width="80" height="60" as="geometry" />
        </mxCell>
      </root>
    </mxGraphModel>
  </diagram>
  <diagram id="0hYvNyOkisIBIsEh-ylE" name="Страница 7">
    <mxGraphModel dx="1434" dy="1952" grid="1" gridSize="10" guides="1" tooltips="1" connect="1" arrows="1" fold="1" page="1" pageScale="1" pageWidth="827" pageHeight="1169" math="0" shadow="0">
      <root>
        <mxCell id="0" />
        <mxCell id="1" parent="0" />
        <mxCell id="9npL1WiJsh2fQ61ER0DU-1" style="edgeStyle=orthogonalEdgeStyle;rounded=0;orthogonalLoop=1;jettySize=auto;html=1;entryX=0.5;entryY=0;entryDx=0;entryDy=0;" parent="1" source="9npL1WiJsh2fQ61ER0DU-2" target="9npL1WiJsh2fQ61ER0DU-5" edge="1">
          <mxGeometry relative="1" as="geometry" />
        </mxCell>
        <mxCell id="9npL1WiJsh2fQ61ER0DU-2" value="F" style="ellipse;whiteSpace=wrap;html=1;aspect=fixed;fontFamily=Times New Roman;fontSize=14;" parent="1" vertex="1">
          <mxGeometry x="400" y="-1120" width="80" height="80" as="geometry" />
        </mxCell>
        <mxCell id="9npL1WiJsh2fQ61ER0DU-3" style="edgeStyle=orthogonalEdgeStyle;rounded=0;orthogonalLoop=1;jettySize=auto;html=1;fontFamily=Times New Roman;fontSize=14;entryX=0.5;entryY=0;entryDx=0;entryDy=0;" parent="1" source="9npL1WiJsh2fQ61ER0DU-5" edge="1" target="9npL1WiJsh2fQ61ER0DU-8">
          <mxGeometry relative="1" as="geometry">
            <mxPoint x="440" y="-899.9999999999998" as="targetPoint" />
          </mxGeometry>
        </mxCell>
        <mxCell id="9npL1WiJsh2fQ61ER0DU-4" style="edgeStyle=orthogonalEdgeStyle;rounded=0;orthogonalLoop=1;jettySize=auto;html=1;fontFamily=Times New Roman;fontSize=14;startArrow=none;entryX=0.5;entryY=0;entryDx=0;entryDy=0;" parent="1" source="9npL1WiJsh2fQ61ER0DU-16" edge="1" target="qRaTgBpGjW3sAONYFjgI-1">
          <mxGeometry relative="1" as="geometry">
            <mxPoint x="440" y="-400" as="targetPoint" />
            <Array as="points" />
          </mxGeometry>
        </mxCell>
        <mxCell id="KJ9qfmPMnv19f05Xg8Fv-3" style="edgeStyle=orthogonalEdgeStyle;rounded=0;orthogonalLoop=1;jettySize=auto;html=1;fontSize=14;entryX=0.5;entryY=0;entryDx=0;entryDy=0;" edge="1" parent="1" source="9npL1WiJsh2fQ61ER0DU-5" target="9npL1WiJsh2fQ61ER0DU-16">
          <mxGeometry relative="1" as="geometry">
            <mxPoint x="680" y="-980" as="targetPoint" />
            <Array as="points">
              <mxPoint x="680" y="-980" />
              <mxPoint x="680" y="-520" />
              <mxPoint x="440" y="-520" />
            </Array>
          </mxGeometry>
        </mxCell>
        <mxCell id="9npL1WiJsh2fQ61ER0DU-5" value="Проходимся i по матрице matrix от 0 до длины матрицы matrix" style="shape=hexagon;perimeter=hexagonPerimeter2;whiteSpace=wrap;html=1;fixedSize=1;fontFamily=Times New Roman;fontSize=14;" parent="1" vertex="1">
          <mxGeometry x="370" y="-1020" width="140" height="80" as="geometry" />
        </mxCell>
        <mxCell id="9npL1WiJsh2fQ61ER0DU-6" style="edgeStyle=orthogonalEdgeStyle;rounded=0;orthogonalLoop=1;jettySize=auto;html=1;entryX=0.5;entryY=0;entryDx=0;entryDy=0;fontFamily=Times New Roman;fontSize=14;entryPerimeter=0;" parent="1" source="9npL1WiJsh2fQ61ER0DU-8" edge="1" target="9npL1WiJsh2fQ61ER0DU-11">
          <mxGeometry relative="1" as="geometry">
            <mxPoint x="440" y="-800" as="targetPoint" />
          </mxGeometry>
        </mxCell>
        <mxCell id="9npL1WiJsh2fQ61ER0DU-7" style="edgeStyle=orthogonalEdgeStyle;rounded=0;orthogonalLoop=1;jettySize=auto;html=1;fontFamily=Times New Roman;fontSize=14;entryX=0;entryY=0.5;entryDx=0;entryDy=0;" parent="1" source="9npL1WiJsh2fQ61ER0DU-8" target="9npL1WiJsh2fQ61ER0DU-5" edge="1">
          <mxGeometry relative="1" as="geometry">
            <mxPoint x="240" y="-980" as="targetPoint" />
            <Array as="points">
              <mxPoint x="640" y="-860" />
              <mxPoint x="640" y="-560" />
              <mxPoint x="240" y="-560" />
              <mxPoint x="240" y="-980" />
            </Array>
          </mxGeometry>
        </mxCell>
        <mxCell id="9npL1WiJsh2fQ61ER0DU-8" value="Проходимся j по матрице внутренний matrix от 0 до длины списка matrix" style="shape=hexagon;perimeter=hexagonPerimeter2;whiteSpace=wrap;html=1;fixedSize=1;fontFamily=Times New Roman;fontSize=14;" parent="1" vertex="1">
          <mxGeometry x="370" y="-920" width="140" height="80" as="geometry" />
        </mxCell>
        <mxCell id="9npL1WiJsh2fQ61ER0DU-10" style="edgeStyle=orthogonalEdgeStyle;rounded=0;orthogonalLoop=1;jettySize=auto;html=1;" parent="1" source="9npL1WiJsh2fQ61ER0DU-11" edge="1">
          <mxGeometry relative="1" as="geometry">
            <mxPoint x="510" y="-880" as="targetPoint" />
            <Array as="points">
              <mxPoint x="580" y="-760" />
              <mxPoint x="580" y="-880" />
            </Array>
          </mxGeometry>
        </mxCell>
        <mxCell id="F1LR7weT7UknkISQ12p2-1" style="edgeStyle=orthogonalEdgeStyle;rounded=0;orthogonalLoop=1;jettySize=auto;html=1;fontSize=14;" edge="1" parent="1" source="9npL1WiJsh2fQ61ER0DU-11" target="9npL1WiJsh2fQ61ER0DU-14">
          <mxGeometry relative="1" as="geometry" />
        </mxCell>
        <mxCell id="9npL1WiJsh2fQ61ER0DU-11" value="Если (i &amp;gt; (int(M) - j - 1))" style="strokeWidth=2;html=1;shape=mxgraph.flowchart.decision;whiteSpace=wrap;fontFamily=Times New Roman;fontSize=14;" parent="1" vertex="1">
          <mxGeometry x="350" y="-820" width="180" height="120" as="geometry" />
        </mxCell>
        <mxCell id="9npL1WiJsh2fQ61ER0DU-12" value="Да" style="text;html=1;strokeColor=none;fillColor=none;align=center;verticalAlign=middle;whiteSpace=wrap;rounded=0;fontFamily=Times New Roman;fontSize=14;" parent="1" vertex="1">
          <mxGeometry x="430" y="-700" width="60" height="30" as="geometry" />
        </mxCell>
        <mxCell id="9npL1WiJsh2fQ61ER0DU-13" value="Нет" style="text;html=1;align=center;verticalAlign=middle;resizable=0;points=[];autosize=1;strokeColor=none;fillColor=none;fontSize=14;fontFamily=Times New Roman;" parent="1" vertex="1">
          <mxGeometry x="530" y="-790" width="50" height="30" as="geometry" />
        </mxCell>
        <mxCell id="F1LR7weT7UknkISQ12p2-3" style="edgeStyle=orthogonalEdgeStyle;rounded=0;orthogonalLoop=1;jettySize=auto;html=1;fontSize=14;entryX=0;entryY=0.5;entryDx=0;entryDy=0;" edge="1" parent="1" source="9npL1WiJsh2fQ61ER0DU-14" target="9npL1WiJsh2fQ61ER0DU-8">
          <mxGeometry relative="1" as="geometry">
            <mxPoint x="360" y="-875" as="targetPoint" />
            <Array as="points">
              <mxPoint x="440" y="-580" />
              <mxPoint x="260" y="-580" />
              <mxPoint x="260" y="-880" />
            </Array>
          </mxGeometry>
        </mxCell>
        <mxCell id="9npL1WiJsh2fQ61ER0DU-14" value="&lt;font style=&quot;font-size: 14px;&quot; face=&quot;Times New Roman&quot;&gt;matrix[i][j] = matrix[i][j] * (-1)&lt;br&gt;# не сортированные элементы умножаем на минус один&lt;br&gt;&lt;/font&gt;" style="rounded=0;whiteSpace=wrap;html=1;fontFamily=Times New Roman;fontSize=14;" parent="1" vertex="1">
          <mxGeometry x="280" y="-670" width="320" height="60" as="geometry" />
        </mxCell>
        <mxCell id="qRaTgBpGjW3sAONYFjgI-1" value="G" style="ellipse;whiteSpace=wrap;html=1;aspect=fixed;fontFamily=Times New Roman;fontSize=14;" vertex="1" parent="1">
          <mxGeometry x="400" y="-400" width="80" height="80" as="geometry" />
        </mxCell>
        <mxCell id="9npL1WiJsh2fQ61ER0DU-16" value="print()" style="rounded=0;whiteSpace=wrap;html=1;" parent="1" vertex="1">
          <mxGeometry x="400" y="-490" width="80" height="60" as="geometry" />
        </mxCell>
      </root>
    </mxGraphModel>
  </diagram>
  <diagram id="KhSUvwCg_xwGvgZA8rtn" name="Страница 8">
    <mxGraphModel dx="1304" dy="1881" grid="1" gridSize="10" guides="1" tooltips="1" connect="1" arrows="1" fold="1" page="1" pageScale="1" pageWidth="827" pageHeight="1169" math="0" shadow="0">
      <root>
        <mxCell id="0" />
        <mxCell id="1" parent="0" />
        <mxCell id="cx0OqfFiJA_3Nc8HfYOs-1" style="edgeStyle=orthogonalEdgeStyle;rounded=0;orthogonalLoop=1;jettySize=auto;html=1;entryX=0.5;entryY=0;entryDx=0;entryDy=0;" edge="1" parent="1" target="cx0OqfFiJA_3Nc8HfYOs-5">
          <mxGeometry relative="1" as="geometry">
            <mxPoint x="440" y="-1010" as="sourcePoint" />
          </mxGeometry>
        </mxCell>
        <mxCell id="cx0OqfFiJA_3Nc8HfYOs-3" style="edgeStyle=orthogonalEdgeStyle;rounded=0;orthogonalLoop=1;jettySize=auto;html=1;fontFamily=Times New Roman;fontSize=14;" edge="1" parent="1" source="cx0OqfFiJA_3Nc8HfYOs-5">
          <mxGeometry relative="1" as="geometry">
            <mxPoint x="439.97000000000025" y="-840" as="targetPoint" />
          </mxGeometry>
        </mxCell>
        <mxCell id="cx0OqfFiJA_3Nc8HfYOs-4" style="edgeStyle=orthogonalEdgeStyle;rounded=0;orthogonalLoop=1;jettySize=auto;html=1;fontFamily=Times New Roman;fontSize=14;entryX=0.5;entryY=0;entryDx=0;entryDy=0;entryPerimeter=0;" edge="1" parent="1" source="cx0OqfFiJA_3Nc8HfYOs-5" target="cx0OqfFiJA_3Nc8HfYOs-13">
          <mxGeometry relative="1" as="geometry">
            <mxPoint x="440" y="-400" as="targetPoint" />
            <Array as="points">
              <mxPoint x="620" y="-920" />
              <mxPoint x="620" y="-540" />
              <mxPoint x="440" y="-540" />
            </Array>
          </mxGeometry>
        </mxCell>
        <mxCell id="cx0OqfFiJA_3Nc8HfYOs-5" value="Проходимся по матрице, от i до int(M)" style="shape=hexagon;perimeter=hexagonPerimeter2;whiteSpace=wrap;html=1;fixedSize=1;fontFamily=Times New Roman;fontSize=14;" vertex="1" parent="1">
          <mxGeometry x="360" y="-960" width="160" height="80" as="geometry" />
        </mxCell>
        <mxCell id="cx0OqfFiJA_3Nc8HfYOs-6" style="edgeStyle=orthogonalEdgeStyle;rounded=0;orthogonalLoop=1;jettySize=auto;html=1;entryX=0.5;entryY=0;entryDx=0;entryDy=0;fontFamily=Times New Roman;fontSize=14;" edge="1" parent="1" source="cx0OqfFiJA_3Nc8HfYOs-8" target="cx0OqfFiJA_3Nc8HfYOs-10">
          <mxGeometry relative="1" as="geometry">
            <mxPoint x="439.97000000000025" y="-720" as="targetPoint" />
          </mxGeometry>
        </mxCell>
        <mxCell id="nzBIu7PUgWBbdbTBePQv-2" style="edgeStyle=orthogonalEdgeStyle;rounded=0;orthogonalLoop=1;jettySize=auto;html=1;fontSize=14;entryX=1;entryY=0.5;entryDx=0;entryDy=0;" edge="1" parent="1" source="cx0OqfFiJA_3Nc8HfYOs-8" target="cx0OqfFiJA_3Nc8HfYOs-12">
          <mxGeometry relative="1" as="geometry">
            <mxPoint x="580" y="-800" as="targetPoint" />
            <Array as="points">
              <mxPoint x="580" y="-800" />
              <mxPoint x="580" y="-595" />
            </Array>
          </mxGeometry>
        </mxCell>
        <mxCell id="cx0OqfFiJA_3Nc8HfYOs-8" value="Проходимся по внутренней матрице, от j до int(M)" style="shape=hexagon;perimeter=hexagonPerimeter2;whiteSpace=wrap;html=1;fixedSize=1;fontFamily=Times New Roman;fontSize=14;" vertex="1" parent="1">
          <mxGeometry x="370" y="-840" width="140" height="80" as="geometry" />
        </mxCell>
        <mxCell id="cx0OqfFiJA_3Nc8HfYOs-9" style="edgeStyle=orthogonalEdgeStyle;rounded=0;orthogonalLoop=1;jettySize=auto;html=1;entryX=0;entryY=0.5;entryDx=0;entryDy=0;" edge="1" parent="1" source="cx0OqfFiJA_3Nc8HfYOs-10" target="cx0OqfFiJA_3Nc8HfYOs-8">
          <mxGeometry relative="1" as="geometry">
            <mxPoint x="280" y="-800" as="targetPoint" />
            <Array as="points">
              <mxPoint x="440" y="-640" />
              <mxPoint x="280" y="-640" />
              <mxPoint x="280" y="-800" />
            </Array>
          </mxGeometry>
        </mxCell>
        <mxCell id="cx0OqfFiJA_3Nc8HfYOs-10" value="&lt;font style=&quot;font-size: 14px;&quot; face=&quot;Times New Roman&quot;&gt;print(matrix[i][j], end=&quot; &quot;)&lt;br&gt;# Вывод значения&lt;br&gt;&lt;/font&gt;" style="rounded=0;whiteSpace=wrap;html=1;fontFamily=Times New Roman;fontSize=14;" vertex="1" parent="1">
          <mxGeometry x="339.97" y="-740" width="200" height="60" as="geometry" />
        </mxCell>
        <mxCell id="cx0OqfFiJA_3Nc8HfYOs-11" style="edgeStyle=orthogonalEdgeStyle;rounded=0;orthogonalLoop=1;jettySize=auto;html=1;entryX=0;entryY=0.5;entryDx=0;entryDy=0;" edge="1" parent="1" source="cx0OqfFiJA_3Nc8HfYOs-12" target="cx0OqfFiJA_3Nc8HfYOs-5">
          <mxGeometry relative="1" as="geometry">
            <mxPoint x="240" y="-920" as="targetPoint" />
            <Array as="points">
              <mxPoint x="240" y="-600" />
              <mxPoint x="240" y="-920" />
            </Array>
          </mxGeometry>
        </mxCell>
        <mxCell id="cx0OqfFiJA_3Nc8HfYOs-12" value="&lt;font style=&quot;font-size: 14px;&quot; face=&quot;Times New Roman&quot;&gt;print()&lt;br&gt;# Переход на следующую строку&lt;br&gt;&lt;/font&gt;" style="rounded=0;whiteSpace=wrap;html=1;fontFamily=Times New Roman;fontSize=14;" vertex="1" parent="1">
          <mxGeometry x="390" y="-630" width="100" height="70" as="geometry" />
        </mxCell>
        <mxCell id="cx0OqfFiJA_3Nc8HfYOs-13" value="&lt;font style=&quot;font-size: 14px;&quot; face=&quot;Times New Roman&quot;&gt;Конец&lt;/font&gt;" style="strokeWidth=2;html=1;shape=mxgraph.flowchart.terminator;whiteSpace=wrap;" vertex="1" parent="1">
          <mxGeometry x="359.97" y="-510" width="160" height="70" as="geometry" />
        </mxCell>
        <mxCell id="XSzMvrBswuYsXQy50Xkg-1" value="G" style="ellipse;whiteSpace=wrap;html=1;aspect=fixed;fontFamily=Times New Roman;fontSize=14;" vertex="1" parent="1">
          <mxGeometry x="400" y="-1080" width="80" height="80" as="geometry" />
        </mxCell>
      </root>
    </mxGraphModel>
  </diagram>
</mxfile>
